<?xml version="1.0"?>
<svg xmlns:rdf="http://www.w3.org/1999/02/22-rdf-syntax-ns#" xmlns="http://www.w3.org/2000/svg"
     xmlns:cc="http://creativecommons.org/ns#" xmlns:dc="http://purl.org/dc/elements/1.1/" id="svg4073"
     viewBox="0 0 425.2 637.8" version="1.1">
  <g id="layer1" transform="translate(0 -106.3)">
    <path id="path4144" opacity=".99618" d="m53.767 722.83c1.0168-0.88602 2.3628-2.0749 2.991-2.6419 10.947-6.2745 20.509-13.974 27.107-23.336 2.3975-2.1493 4.5297-4.2898 4.7382-4.7566 7.1199-11.498 30.779-19.225 10.613-26.494-1.9211-0.96995-4.8424-2.5776-6.6333-3.6506-3.1883-1.9102-3.9778-2.3391-7.3915-4.0162-2.7327-1.3425-3.8262-2.1433-5.4962-4.0251-11.959-11.802-21.309-26.691-27.828-42.046-0.28999-1.069-1.8943-4.9127-2.7686-6.6333-1.7218-3.3884-2.1925-4.2544-2.7812-5.1172-11.087-14.445-10.218-36.094-21.715-50.023-0.6839-0.7841-0.69696-0.84566-0.0804-0.37905 0.40486 0.30638 0.62301 0.36817 0.48479 0.13726-0.13821-0.23092-0.0875-0.99103 0.11273-1.6892-0.0428-2.3175-0.83749-5.5734-2.3203-7.5567-0.2965 0-0.14068-1.4628 0.19117-1.7946 0.46092-0.46092 3.3316 0.41578 3.8217 1.1671 0.92473 1.4176 2.9041 7.4872 3.0828 9.4528 0.18443 2.0295 0.5188 2.8655 1.5643 3.9109 2.4677 10.233 6.0416 18.27 13.757 34.304 0.44305 1.1259 1.1291 2.644 1.5246 3.3737 0.3955 0.72968 1.6011 3.8 2.679 6.8229 1.7537 4.9177 2.2126 5.808 4.3603 8.4589 1.572 1.9403 2.5977 3.6272 2.9722 4.8882 5.6444 11.402 13.488 23.261 21.806 33.028 0 0.26985 0.62982 1.2263 1.3995 2.1256 0.7697 0.89922 1.6652 2.1599 1.99 2.8014 0.4677 0.92382 1.6156 1.6835 5.5181 3.6516 7.3673 4.7545 15.018 8.1387 24.589 6.3572 2.1117-0.10465 4.1303-0.31199 4.4858-0.46073 0.6429-0.26898 2.9546-3.9951 2.9546-4.7624 0-0.2211-0.4274-0.82944-0.9498-1.3519-1.1649-1.1649-2.4616-3.6385-2.4616-4.6958 0.3907-1.8869 3.6195-7.1652 1.7304-7.2076-1.6664 0-2.8682-0.67319-2.8591-1.6016 1.0406-3.5077 5.0985-3.7008 6.0867-6.4768-0.1727-0.46703-0.9231-1.0005-1.8345-1.3043-0.8481-0.28274-1.6415-0.77292-1.7629-1.0894-0.3274-0.85331 0.4001-1.9475 1.7637-2.6527 1.7899-1.1503 3.2844-2.6673 4.0229-4.685-1.333 0.008-4.1207 1.0528-5.6981 2.1352-0.7665 0.526-2.0885 1.0495-2.9376 1.1634-1.4995 0.20112-1.5439 0.17538-1.5439-0.89562 0-1.7255 0.9218-2.639 3.7555-3.7219 2.9523-1.1281 3.5551-1.9236 2.2552-2.9762-0.6672-0.54033-1.3056-0.65738-2.866-0.52555-1.1042 0.0933-2.0076 0.0588-2.0076-0.0767 0-0.43341 1.2647-2.1034 1.9926-2.6311 0.945-0.6852 0.7377-2.1728-0.2868-2.0578-3.1092 0.34891-4.8423 0.82826-5.6131 1.5524-1.0895 1.0236-1.6358 1.043-2.153 0.0765-0.935-1.7471 0.5307-4.1853 2.9889-4.9718 0.7512-0.24035 1.9294-0.85813 2.6184-1.3728 1.0767-0.80434 1.2365-1.1307 1.1372-2.3221-0.1028-1.2332-0.2416-1.3986-1.2565-1.4983-0.7743-0.076-1.7056 0.26208-2.8985 1.0522-1.0727 0.71049-2.871 1.4058-4.6143 1.7841-2.6698 0.57937-2.9676 0.57751-4.5542-0.0285-1.5386-0.58756-2.6873-1.7483-1.7302-1.7483 0.2142 0 0.2877-0.16473 0.1633-0.36608-0.1245-0.20135 0.021-1.2674 0.3237-2.369 0.3025-1.1016 0.64-3.2373 0.75-4.7461l0.2-2.7431c-3.435 1.5596-1.8947-2.6606-1.1187-5.1032 0.5973-0.54061 0.6818-0.82823 0.3578-1.2186-0.5815-0.70063-1.0231-0.64867-2.8899 0.34011-1.8227 0.9654-2.0555 1.6762-0.6633 2.0256 1.3015 0.32667 1.1876 0.80078-0.2694 1.1208-0.9957 0.21871-1.3142 0.12081-1.7519-0.53843-0.2943-0.44315-0.7701-0.80575-1.0574-0.80575-0.7449 0-0.6466 1.029 0.141 1.4755 0.6251 0.3543 0.6218 0.40669-0.057 0.90858-0.9091 0.67183-0.3391 1.0992 1.8579 1.3931 1.8442 0.24668 1.9143 0.70181 0.2638 1.7112-0.6888 0.42127-2.117 1.4482-3.1738 2.2821-1.0569 0.83391-2.6681 1.8983-3.5805 2.3654-0.9125 0.46702-1.659 1.0214-1.659 1.2319 0 0.35474 1.0654 0.55568 2.1795 0.41099 0.2606-0.0337 0.4738 0.0944 0.4738 0.2849 0 0.35335 2.1173 0.98916 4.6068 1.3834 1.148 0.18179 1.837 0.76059 1.837 1.5431 0 0.40585-2.4175 2.825-2.8231 2.825-0.2587 0-0.966 0.42624-1.5717 0.94717-1.4128 1.215-1.9569 1.1947-2.5232-0.0943-0.2519-0.57331-0.632-1.1658-0.8447-1.3167-0.487-0.34539-8.743-0.25594-9.3206 0.10102-0.2351 0.14529-0.3662 0.58487-0.2913 0.97684 0.1106 0.57953 0.5957 0.75651 2.5958 0.94713 2.8159 0.26841 3.7864 0.59359 3.7864 1.2686 0 0.68501 4.0313 3.2603 5.4688 3.4935 0.6708 0.10886 2.8777-0.0845 4.9042-0.42972 4.3878-0.74745 5.2722-0.59314 4.9307 0.86032-0.1314 0.55913-0.2521 1.1019-0.2683 1.2061-0.016 0.10423 0.2553 0.72318 0.6032 1.3754 0.5981 1.1216 0.5945 1.2202-0.067 1.8186-0.3846 0.34805-1.3107 0.80162-2.058 1.0079-4.1129 1.7685-1.3922 3.3485 0.7211 4.9179 0.5484 0.60605 0.5913 0.90728 0.2392 1.6801-1.5361 1.5837-2.852 1.6153-5.0559 2.2281 0.16222 0.97721 0.37293 1.9557 0.6336 2.9033 0.1236 0.20005 4.4315 2.0862 6.8834 3.0138 1.6416 0.62103 1.8642 1.4306 0.6745 2.4528-0.7645 0.65689-1.3308 0.80597-2.6231 0.6904-1.8961-0.16959-2.5856 0.44906-1.2027 1.0792 0.5556 0.25313 0.8573 0.64074 0.7389 0.94925-0.2797 0.72895-4.4886 0.68578-6.6099-0.0678-2.9694-1.0549-5.4403 0.007-4.5521 1.9561 0.3867 0.84868 0.5882 0.93143 1.6667 0.68441 0.6747-0.15455 1.5244-0.26355 1.8881-0.24221 0.846 0.0496 4.9088 3.165 5.6978 4.369 0.3306 0.50456 0.8918 1.2081 1.2472 1.5635 0.4707 0.47075 0.5327 0.75954 0.2283 1.064-0.5441 0.54409-4.416-0.28447-5.7533-1.2311-0.5231-0.37029-1.6429-0.85957-2.4885-1.0873-3.7592-1.962-7.5043-4.5362-10.902-6.4929-4.7064-3.6557-2.0865-3.8389 1.0783-2.4628 3.3554 1.4647 4.5358 1.6369 4.8903 0.71318-7.2655-1.323-6.5943-8.8132-2.9329-8.4188 0.17657 1.7136-2.0874-1.8491-3.1915-1.9989-3.7843-3.3867-11.142-4.6901-12.79-9.2474 6.0858 2.4663 4.8347-2.8114-4.7428-8.4569 0.95326-0.0876 1.778-0.56774 2.9302-1.7057 1.5328-1.5138 1.5937-1.6608 1.38-3.3286-0.21581-1.6842-0.18593-1.7525 0.86027-1.9665 0.5961-0.12194 1.4185-0.46968 1.8276-0.77276 0.6327-0.46881 0.6682-0.64211 0.2379-1.1607-0.2783-0.33527-0.9035-0.60958-1.3893-0.60958-1.2752 0-2.8143-0.78778-2.8143-1.4405 0-0.78096 1.1404-1.5655 2.2966-1.5798 0.5335-0.007 1.2946-0.24946 1.6914-0.53962 2.2325-1.6324-3.2974-2.4897-6.2231-0.96468-2.8348 1.9884-4.6245-2.8839-7.3139-1.5011-1.6641 0.89061-3.7684-1.4505-2.5852-2.8762 0.40191-0.48427 0.6285-0.48219 1.8228 0.0167 0.75009 0.31339 1.5789 0.48726 1.8418 0.38636 0.26292-0.10087 0.75103-1.1224 1.0847-2.2701 1.0455-3.5966-0.44471-6.6674-3.2357-6.6674-1.5012 0-2.365 0.69127-2.8418 2.2743-0.157 0.52119-0.45787 1.0583-0.6686 1.1936-0.21074 0.13533 0.14834 0.52086 0.79794 0.8568 1.3258 0.68555 2.1275 1.8984 1.807 2.7337-0.34643 0.90278-1.7066-0.0769-2.4681-1.7777-0.36471-0.81461-1.2457-1.8728-1.9578-2.3515-1.9006-1.2778-2.1318-4.9198 0.003-7.3877 1.3151-0.60094 6.4172 1.4377 6.8388-7.3638-4.0416-0.59861-6.0592-0.32986-9.2546-0.46357-7.1952 0.1126-9.9921-4.9031-2.2696-4.3304 1.8635 0.14142 4.0965 0.37616 4.9623 0.52168 2.8111 0.16802 9.6333-2.9641 9.5431-4.63-2.4051-2.2343-5.435 1.3287-7.3063 0.11477-1.1924-0.78133-1.2228-1.4019-0.1152-2.358 1.379-1.1904 3.2552-2.4283 3.6804-2.4283 0.21691 0 0.39439-0.42643 0.39439-0.94762 0-0.68532-0.20365-0.94762-0.73573-0.94762-0.40465 0-0.84114 0.17057-0.96999 0.37904-2.0657 0.66461-4.9917 1.3673-5.6529 3.6051-0.17803 0.70927-0.48694 0.94353-1.2442 0.94353-3.7638-2.256-8.2581-3.3167-2.0745-3.5218 3.0721-0.10143 3.7568-0.79008 2.7937-2.8098-0.62222-1.3048-0.61718-1.3385 0.3089-2.0663 2.0928-1.6449 2.3122-1.8965 2.1939-2.517-0.12712-0.66716-1.8211-1.1643-1.8211-0.5345 0 0.19464-0.64882 0.80351-1.4418 1.3531-1.5417 1.0684-3.1563 1.2582-5.3506 0.62887-1.6498-0.47316-4.2652-2.2756-4.0869-2.8165 0.0751-0.22777 1.3527-0.50986 2.839-0.62687 2.0909-0.16455 3.0203-0.43883 4.1069-1.2119 1.6213-1.1536 2.4558-0.94193 3.496 0.88656 0.50722 0.89159 0.88426 1.1023 1.9758 1.1043 1.9898 0.004 2.7783-0.69802 2.2743-2.0235-0.51649-1.3585-0.57036-1.2235 0.69829-1.749 2.7675-1.1463 3.5348-3.6594 1.3357-4.3746-1.1415-0.42375-2.0283-1.2818-3.0866-1.7057-1.0106 0-4.6247 2.6314-5.2349 3.8115-0.66949 1.2946-1.5003 1.3997-2.832 0.35804-1.126-0.88075-2.3139-0.95311-3.7189-0.22651-1.8582 0.96093-3.2996 0.9654-5.3476 0.0167-2.255-1.0447-2.4483-1.8331-0.59923-2.4433 0.88492-0.29206 1.3267-0.67304 1.3267-1.1442 0-1.0537-0.64002-1.2776-3.9139-1.3692-3.7117 0.26472-4.0633-1.6837-5.8983-3.782-1.5185-1.7251-2.1122-3.0286-1.5403-3.3821 0.57452-0.35509 2.9144 0.85464 3.9916 2.0637 1.3371 1.5006 3.0088 1.6062 3.6361 0.22955 0.5262-1.1548 1.5354-1.518 2.6141-0.9408 1.1257 1.0265-0.47083 1.9206 0.86783 2.8286 1.2769 0.83668 1.9427 0.41514 3.055-1.9342 1.255-2.6507 1.2447-3.7482-0.0459-4.8583-1.8356-1.6353 0.56345-3.4896-0.81395-4.8798-1.6541-1.1939-3.6718-0.63756-4.9219-1.6219-2.147-2.8071-3.9679-0.96691-6.2016 0.32231-0.676 0.24635-0.59673 0.82587 0.48199 3.5237 0.25622 0.64078 0.35127 1.6216 0.21123 2.1795-0.20006 0.7971-0.48153 1.0145-1.3136 1.0145-1.4257 0-2.7645-1.498-4.0652-4.5486-0.94137-2.2078-1.1091-3.3272-0.92968-6.2029-23.339-37.737-9.6865-60.172 0.82502-78.229-0.0296-0.90699 0.19856-1.3872 0.86747-1.8255 0.49922-0.3271 1.0821-1.0952 1.2954-1.7069 0.43416-1.2454 0.61002-1.299 1.9062-0.58069 1.8442 1.022 2.7111 0.037 1.655-1.8804-4.2144-17.919-12.699-36.824-12.756-54.42-2.4276-22.779 0.55618-48.739 2.4444-69.127 0.11731-1.2509 0.54954-3.0419 0.96052-3.98 0.9279-2.1181 2.1906-6.0534 2.1971-6.8477 3.9373-9.8768 5.4419-22.167 13.163-30.546 0.68519-0.70555 1.2458-1.4149 1.2458-1.5764 0-0.38197 4.5574-7.8857 6.565-9.8795 15.528-23.011 27.136-42.542 47.545-62.118 0.2872-0.52799 6.8048-6.6291 8.0142-8.3327 2.1601-3.0427 2.6098-3.4996 6.0677-6.1646 0.9468-0.72968 1.9042-1.7171 2.1275-2.1942 0.2233-0.47718 1.1448-1.6712 2.0479-2.6533 0.903-0.98217 1.9256-2.2122 2.2723-2.7334 0.7692-1.1561 3.6779-3.5374 7.3966-6.0554 1.5287-1.0351 3.1351-2.3342 3.5698-2.8869 0.8901-1.1315 2.8044-2.0501 4.2723-2.0501 21.344-26.53 37.186-17.644 65.865-25.214 1.6784-0.4892 2.0476-0.46135 4.9276 0.3716 13.882 3.2226 30.341 9.1788 38.411 2.4889 0.9871-0.86666 1.6766-1.1474 2.8174-1.1474 10.168-3.6326 20.37-7.2489 32.197-6.5832 3.3222 0.20177 4.1985 0.13983 4.956-0.35029 0.7899-0.51103 1.0814-0.52377 2.0574-0.0899 1.4104 0.62699 2.9526 2.084 4.1985 3.9667 7.2472 3.7888 8.1585 16.591 17.226 18.03 1.1684 0.16069 2.811 0.83434 4.4307 1.8171 2.1021 1.2755 3.095 1.6231 5.4168 1.8968 1.5636 0.18428 3.6664 0.31422 4.6729 0.28874 3.7229-0.0942 6.3133 0.70331 12.848 3.9555 3.4862 1.7351 7.0682 3.7445 7.96 4.4653 0.8919 0.72083 2.048 1.5314 2.5691 1.8013 1.0178 0.52699 3.0199 2.0217 5.5661 4.1556 0.8723 0.73104 2.1223 1.737 2.7778 2.2354 1.588 1.2076 2.0105 2.4199 1.5673 4.4977-0.4087 1.9162 0.6 6.8922 1.6273 8.0273 0.8156 0.90125 0.7446 1.5184-0.3621 3.147-0.5243 0.77156-1.0619 2.2184-1.1946 3.2151-0.1639 1.2304-0.7098 2.4711-1.7002 3.864-0.8022 1.1284-1.4587 2.4578-1.4587 2.9542 0 0.52667 0.7893 1.8509 1.8953 3.1799 1.9877 2.3885 2.2177 3.1027 1.3957 4.3332-0.2747 0.41122-0.7852 1.5177-1.1344 2.4589-0.6628 1.7864-1.8057 3.0662-7.9371 8.8878-3.0659 2.911-3.6957 3.7018-3.6957 4.6405 0 2.1924 2.2108 3.0265 4.6619 1.759 11.772-2.0325 22.293 11.6 22.628 23.058 0 6.4501-2.0858 12.117-4.9989 13.612-1.5213 0.78061-3.3387 2.8912-3.3387 3.8772 0 0.36727 0.4607 0.73608 1.1389 0.91184 0.6265 0.16231 1.16 0.38041 1.1856 0.48464 0.026 0.10424-0.1733 1.1722-0.4421 2.3732-0.4565 2.0398-0.4251 2.377 0.4761 5.1172 0.8598 2.6145 0.9487 3.4071 0.8175 7.2892-0.178 5.268-1.2901 8.7196-3.6414 11.303-8.4274 3.2267 2.9816 24.72 7.4686 34.042 0.3296 0.32955 0.8302 1.152 1.1125 1.8276 0.2823 0.67566 1.3018 2.0398 2.2656 3.0315 2.3029 2.3695 2.4582 3.1301 1.1745 5.7539-1.2597 5.5386-0.6099 13.382 2.2558 17.81 1.6483 2.4826 1.6844 3.2009 0.2046 4.075-0.6302 0.37226-1.4049 1.0722-1.7216 1.5555-0.5857 2.6322 1.0864 2.6536 1.737 5.6621 0.2325 1.4538 0.3858 2.7848-0.7263 3.2454-0.7085 0.29345-1.1757 0.76233-1.1757 1.1798 0 0.70064 2.1735 2.6266 2.9642 2.6266 4.0053 2.6428 5.2145 8.1625 6.397 11.41 1.9493 3.4913 3.6402 7.6883 6.3883 10.196 16.616 34.088 14.626 49.305 8.5202 67.215-1.6888 3.3099-1.917 6.9526-4.1723 9.7319-0.176 0-0.2777 0.2882-0.226 0.64046-1.8573 11.373-4.9505 24.376-4.9935 32.403-2.9321 21.39 1.9023 44.356-0.8533 62.09 0 0.5315-0.3173 1.5608-0.705 2.2874-7.1333 21.011-12.235 14.939-17.022 33.089-0.1395 0.2258 1.3027 2.1456 1.712 2.2755-3.8775 1.3127 26.71 63.551 25.884 64.978-1.3991 2.417-0.3965-7.9462 22.868 49.613 1.2609 3.1195 0.7589 6.9215-1.2426 10.735-23.564-42.867-41.02-81.448-55.252-121.76-0.5081-1.4134-1.0789-3.5224-1.2684-4.6867-0.418-2.5684-2.2599-1.266-3.3583-1.9657-79.484 14.699-135.94-0.86099-175.32-44.607-0.5212-0.35634-3.0108-2.5348-3.949-3.2575-4.5478-3.8138-1.7022 0.94344-6.1269-3.5612 0-0.52119-0.1566-0.94763-0.348-0.94763-0.7594 0-1.5472 0.48625-1.5472 0.95487 0 0.27917-0.6406 0.60291-1.4703 0.74309-1.8834 0.44056-2.1787 1.8749-3.5348 2.8506-3.1649 2.9528-1.4293 7.2016-1.2788 11.75 1.9737 15.278 6.7649 29.236 3.6559 44.917-0.2032 0.83391-0.3952 3.9042-0.4266 6.8229-0.064 5.9541-0.4826 9.3058-1.322 10.587-0.778 1.1873-2.7274 7.5589-3.0351 9.9201-0.2036 1.5624-0.1382 1.9772 0.3408 2.161 0.326 0.12513 0.958 0.94342 1.4044 1.8184 1.2902 2.2157 3.6309 4.2557 3.9049 6.4964-0.1401 0.22675-0.074 0.29654 0.1499 0.15818 2.6201 2.9544 7.2471 6.1464 8.7202 8.3848 21.944 25.899 74.866 66.641 76.096 63.771 0 0 3.0731 0.8515-1.2989 1.4301-2.0276-0.0776-2.8473-0.24703-2.7821-0.57624-34.83-23.035-80.927-64.132-86.544-78.695-0.8183-0.91544-1.7053-1.9855-1.9711-2.378-1.9436-2.8697-3.3215-8.2379-2.9301-11.415 0.2248-1.8246 0.1619-2.06-0.7851-2.9376-0.5662-0.52476-1.1599-0.95407-1.3194-0.95407-0.366 0-2.2527 2.2222-2.2527 2.6533 0 0.17645-0.4985-0.17778-1.1079-0.78717-0.6094-0.6094-1.2562-1.108-1.4373-1.108-1.2808 0-6.4219 7.8775-10.265 15.729-0.5098 1.0414-10.634 17.008-11.239 17.886-3.4718 15.257-7.4854 17.464-7.791 15.903 0 0.20036-0.672 1.0636-1.4932 1.9183-1.1003 1.145-3.3941 6.867-5.2963 7.4925-7.6485 2.7034-12.074 5.024-16.757 10.263-7.671 8.4015-16.337 16.867-24.403 22.391-4.4083 2.948-5.8577 3.9827-6.0772 4.3378-0.12199 0.19739-1.8562 0.35891-3.8538 0.35891h-3.632l1.8487-1.6109zm22.284-113.08c0.1681-0.54856-0.037-1.0434-0.6827-1.6504-0.8948-0.84062-1.0048-0.85233-3.6185-0.38523-1.4826 0.26496-2.9652 0.67887-3.2947 0.9198-0.54588 0.39914-0.54535 0.54212 0.01 1.6083 1.2955 2.584 6.9872 1.0792 7.5859-0.49242zm33.754-6.2195c1.0906-0.41468 1.3219-1.6893 0.3727-2.0536-2.0842-0.58368-3.0452 0.47902-4.5763 1.2861-0.2804 0-0.5098 0.25586-0.5098 0.56858 0 0.67243 3.1214 0.80415 4.7134 0.19892zm4.687-4.2547c0.9321-0.93216 0.4986-1.4404-1.2285-1.4404-1.744 0-2.3262 0.3988-1.9631 1.3448 0.2581 0.67273 2.5459 0.74122 3.1916 0.0956zm-27.27-7.0845c0.3753-0.23779 0.396-0.39899 0.077-0.59637-0.5431-0.3356-1.5385 0.0155-1.5385 0.54288 0 0.47278 0.7565 0.50046 1.4619 0.0535zm3.8746-1.4192c0.3291-0.2847 0.9479-0.51767 1.375-0.51767 0.4272 0 0.989-0.25585 1.2485-0.56857 0.4064-0.48962 0.2567-0.56857-1.0779-0.56857-1.5115 0-4.1534 0.95668-4.6826 1.6957-0.7399 1.0332 1.9357 0.99829 3.137-0.0409zm251.64-0.37524c23.435-2.5092 31.553-10.004 31.654-33.789-2.2933-76.555 8.6016-79.305 8.4488-90.545 10.281-14.067 7.3203-42.597-7.4084-69.502-6.0031-7.6009-3.9755-13.592-7.9835-17.721-3.2257-2.3061-3.1029 9.8237-4.5735 9.4098-1.6497 5.0166-5.657 7.0225-8.6332 6.6268-2.1011 0.62942-3.8276 1.6314-6.0113 2.0468-1.6002-0.0554-2.2994 0.15306-3.177 0.94721-0.8075 0.73082-1.0621 2.1012-0.3904 2.1012 0.2123 0 0.9855 1.2631 1.7183 2.8068 4.6663 7.9531 8.928 15.871 14.701 22.619 0.4658 0.017 0.6025 0.11715 0.316 0.23153-0.3341 0.13335-0.1032 0.44597 0.6821 0.92353 3.2777 4.1256 5.1464 7.522 4.0728 5.2588 0.4564 0.36676 0.5398 0.61072 1.0749 0.9183 2.572 2.5391 7.8184 11.728 9.3763 14.561 1.3329 6.1394-2.2296 12.622-6.109 21.77-0.4441 0.94445-2.6249 3.5134-3.0867 5.3569-0.7324 2.9233-0.7803 3.5641-0.375 5.0117 0.6097 2.1776 0.3153 3.7673-1.1155 6.0234-1.2593 1.9857-1.4505 3.4858-0.8077 6.3376 1.8665 8.2814 2.0481 9.6673 2.0736 15.831l0.026 6.2543-1.5966 3.3231c-0.8781 1.8277-2.0288 3.8898-2.557 4.5823-0.5283 0.69255-1.1397 1.7732-1.3587 2.4015-0.3974 1.1401-5.3442 5.6988-8.4668 7.8025-1.7255 1.1625-4.8312 2.703-6.3 3.125-0.5212 0.14976-1.8148 0.67728-2.8746 1.1724-1.8142 0.84737-0.7294 2.3264-7.658 2.3469-19.224-0.0908-41.627-13.819-57.311-22.473-2.9171-1.637-4.3939-1.2036-6.585 1.9324-1.2806 1.8328-1.6099 2.0845-2.6533 2.0286-2.3439-0.1258-2.528-0.0258-3.3363 1.8133-0.4352 0.99026-0.7987 2.0137-0.8078 2.2743-0.01 0.2606-0.1379 0.47381-0.2864 0.47381-2.8996 6.1457-2.4642 9.3423-7.1884 11.953-0.8951-0.22466-0.9456-0.37268-0.8839-2.5894 0.8705-6.1095 0.718-11.904 5.6793-15.789 4.2372-6.1653 8.1999-7.2356 12.497-11.292 2.8582-2.7168 3.0107-3.8776 3.8103-8.3777 7.0484-8.5569 9.6562-27.899 23.421-37.988 2.259-1.6921 3.9022-4.5017 6.1398-5.5465 2.1285-0.91711 2.6581-2.6613 3.1631-4.7582 0-0.36483 0.2682-0.66333 0.5932-0.66333 0.3251 0 0.5004-0.14659 0.3896-0.32577 1.7386-0.10638 2.5729 0.22163 3.6628-0.69086 0.2606-0.003 1.0282-0.13055 1.7057-0.28281 0.8186-0.18397 1.2319-0.13509 1.2319 0.14566 0 0.29976 0.2123 0.3089 0.7307 0.0314 0.7624-0.40805 1.9226-0.17088 1.9226 0.39302 0 0.17963-0.2577 0.22767-0.5728 0.10676-0.4245-0.16291-0.5134-0.0371-0.3433 0.48571 0.183 0.56255 0.1506 0.59397-0.1602 0.15507-0.2144-0.30277-0.2884-0.7292-0.1645-0.94762 0.1244-0.21935 0.073-0.2579-0.115-0.0861-0.3397 0.31056-0.373 0.45292-0.4816 2.058-0.034 0.50668-0.305 0.85286-0.6669 0.85286-0.3857 0-0.5291 0.20853-0.3909 0.56857 0.12 0.31271 0.065 0.56857-0.1219 0.56857-0.1871 0-0.6322 0.29208-0.9892 0.64906-0.4562 0.45625-1.3102 0.62337-2.872 0.67892-2.3939 0.0851-2.3488 0.60757-3.4371 3.6438-0.042 3.1496 0.9655 5.4544 3.4371 7.8618 2.4471 2.3836 4.1959 3.1739 7.4916 3.3855 7.4364-0.6894 14.163-2.9369 22.598-5.0569 2.8868-0.72877 4.5016-0.67861 7.6815 0.23866 13.27 6.6439 15.971-6.4132 17.825-13.226 0.6043-2.0853 0.6286-2.5729 0.189-3.7887-0.2776-0.76748-0.5429-2.495-0.5898-3.839-10.266-13.587-18.324-25.149-25.526-37.102-0.026-0.37941-0.5636-1.2681-1.1946-1.9749-2.65-6.8363-10.981-14.321-11.923-18.64-0.2208-1.1465 0.7811-1.6058 2.4272-1.1126 2.0907 0.62637 7.0984 0.56166 9.275-0.11987 3.2343-1.0127 3.2375-1.1059 0.1466-4.3355-3.551-3.7104-4.3739-4.2892-5.7368-4.0349-1.3452 0.25099-4.4827 2.8362-5.5625 4.5834-1.5244 2.4666-3.0203 1.5123-3.0203-1.9267-1.3769-6.7091-1.0735-13.278 2.0695-19.074 3.2229-6.5845 8.5004-11.443 11.955-17.796 0-0.92711 5.4779-5.3082 6.9923-5.5923 0.7141-0.13395 1.9489-0.7993 2.744-1.4786 0.7951-0.67924 1.7868-1.3491 2.2038-1.4887 0.4169-0.13953 1.0636-0.48628 1.437-0.77057 0.6493-0.49427 0.6442-0.58356-0.1162-2.0423-5.0534-7.5848-9.5991-16.357-11.945-25.281 0.059-0.64438-0.3078-1.955-0.846-3.0244-0.7859-1.5615-0.8815-2.0682-0.5539-2.936 0.591-1.5658-0.1068-1.6274-1.2631-0.11149-0.5595 0.73357-1.2609 1.3338-1.5587 1.3338-9.0854 5.192-18.398 9.7185-27.724 10.461-1.6038 0.11715-4.174 0.47716-5.7115 0.80003-2.0512 0.43074-4.0697 0.53463-7.581 0.39021-13.606 1.1912-24.76-11.324-32.512-26.348-0.4524-1.4863-0.4658-2.1956-0.079-4.1669 0.6225-3.1711 0.2255-4.2832-1.7689-4.955-4.8686-2.4518-12.002-0.89154-19.593-1.2658-11.275-0.55583-21.428 2.7162-22.399 9.0665-3.581 3.39-11.824 6.2015-13.441 4.5845-0.6005-0.60053 0.498-1.4254 1.9198-1.4415 1.7235-0.0195 3.2044-0.9979 3.4919-2.3069 0.3143-1.4309 0.2422-1.5093-1.6172-1.7587-1.0094-0.13538-1.9006 0.0163-2.7794 0.47303-2.5535 1.3271-7.2841 0.83028-11.464-1.2039-0.5902-0.28724-1.2934-0.52225-1.5628-0.52225-0.2693 0-1.2362-0.32991-2.1488-0.73314-0.9125-0.40322-2.5696-0.85361-3.6825-1.0009-1.9386-0.25654-2.0179-0.23269-1.8952 0.56976 0.1339 0.87513 3.2687 2.7651 5.3497 3.2252 0.5786 0.12793 1.4252 0.60584 1.8814 1.062l0.8294 0.82938-0.9338 0.23065c-0.5136 0.12686-2.5116 0.15248-4.44 0.057-2.492-0.12346-3.5062-0.0475-3.5062 0.26256 0 0.71164-2.3605 1.9363-3.7905 1.9666-0.7297 0.0154-1.6678 0.16917-2.0848 0.34165-0.6816 0.28197-0.6225 0.37209 0.5862 0.89383 1.0989 0.47432 1.8853 0.51308 4.3078 0.21232 2.3402-0.29054 3.333-0.25203 4.7205 0.18306 0.9663 0.30303 3.0146 0.65452 4.5516 0.78108 3.1075 0.25588 7.7024 1.3587 9.4705 2.273 0.6344 0.32806 1.745 0.59647 2.4679 0.59647 1.8523 0 2.5141 0.33535 2.5111 1.2725 0 1.3368-2.0743 2.3614-5.8519 2.8964-3.5383 0.50113-5.7852 1.2358-6.4515 2.1095-0.2157 0.28284-1.0744 0.683-1.9083 0.88925-1.5069 0.37267-4.854 1.2713-7.3915 1.9844-0.7296 0.20506-1.5825 0.40889-1.8952 0.45296-0.962 0.13556-4.8815 2.9148-5.8425 4.1428-1.2588 2.3753-0.5684 5.1323-1.5678 7.0668-1.1135 2.1295-1.4144 2.3114-3.0842 1.8638-0.94131-2.1247 0.23523-6.2941 1.7752-8.6524 1.0558-1.1302 1.1235-2.2508 0.2887-4.7757-0.4332-1.3102-0.4051-1.6535 0.245-2.996 0.4038-0.83391 0.8514-1.7721 0.9946-2.0848 0.1665-0.3634 0.7928-0.56858 1.7357-0.56858h1.4753l0.1126 1.7293c0.094 1.4414 0.2932 1.836 1.1974 2.3701 1.0724 0.63351 1.096 0.6273 2.0853-0.54841 1.4913-1.7724 3.169-2.2148 7.6875-2.0273l3.881 0.16102 0.5566-1.0764c0.4402-0.85117 0.4609-1.2028 0.099-1.6805-0.5525-0.72945-4.8036-1.4573-8.0283-1.3745-5.3654 0.1377-9.4224-1.1764-11.45-3.7088-1.445-1.8044-5.1224-3.5165-6.1379-2.8576-0.8918 1.6964-0.3686 2.2027 0.016 4.1624-2.832 0.46807-5.9125 0.33301-8.4971 1.5462-0.7211 0.62957 0.3395 2.8973-0.2843 2.5464-0.9494-0.53399-4.3357 3.7853-3.4432 7.2895-2.8358 2.2066-1.8644 1.4233-3.4513 4.1263-2.4178 0.51504-6.7049 0.0987-6.7512 2.6157 1.3168 3.8918 4.8116 3.3286 7.7373 5.6722 1.6333 1.3384 1.7206 1.5041 1.5043 2.8567-0.1992 1.2456 0.0347 1.351 0.7206 2.0585 1.9118 1.9722-1.2404 4.445-3.0198 2.2002-0.48669-0.61398-2.2675 0.18089-2.2675 0.84189 0 0.30141 0.4833 0.7165 1.074 0.92241 0.81035 0.0414 1.1294 0.3004 1.6425 0.5492 0.7709 0.77089 0.7165 1.2135-0.261 2.1242-2.467 1.8553-1.9119-2.106-3.6305-1.463-7.6563 1.9571-15.008-3.8557-12.31 5.1868-4.3587 2.4012-3.6979 5.8473-2.6966 7.7922-2.0963 0.16808-4.3124 1.2296-6.4038 0.79331-2.7587-0.57545-8.9994-0.82487-9.7064-0.38793-1.0839 3.9347 3.7531 5.076 6.3899 5.9086 2.2826 0.6011 4.7801 0.95884 6.6747 1.9869 4.7977 1.9145 12.154 0.49191 16.379-1.4843 1.7563-0.83351 2.801 0.95644 7.8127 1.1298 2.9332 0.10147 5.7595 0.29796 6.2807 0.43663 0.7472 0.1988 1.2323-0.0134 2.2935-1.0033 1.2201-1.138 1.3094-1.3568 0.9547-2.3393-0.3499-0.96904-0.2747-1.1769 0.7093-1.9615 1.0626-0.84722 2.4863-1.1084 2.4863-0.45605 0 0.76982-1.1944 2.521-1.8645 2.7336-0.6845 0.21722-0.698 0.32402-0.1937 1.5309 0.8913 2.1332 0.7104 3.1635-0.6843 3.8979-0.6745 0.35514-1.8978 1.2946-2.7186 2.0878-1.8614 1.7989-3.4149 2.917-4.0528 2.917-2.9876-1.9694-4.8953-2.0314-7.2177-2.1066-7.4235 0.0757-15.2-1.5154-21.982-1.8651-1.3829-0.0681-2.8818-0.32043-3.331-0.56081-0.9612-0.51433-2.3042-0.18876-2.3042 0.55868 0.72002 1.9214 2.3239 2.4841 3.7032 3.3454 11.02 7.4053 23.918 6.4033 32.865 3.6196 2.171-0.63002 5.4912 0.67395 6.6316 0.40943 2.0591-0.47761 3.0437-1.0784 3.0437-1.8572 0-0.39184-0.6937-0.55176-1.9079-0.43985-0.3197 0.0294-0.9556-0.29521-1.4131-0.72148l-0.8319-0.77505 0.7403-1.8781c1.0126-2.5691 1.4233-3.1571 2.7283-3.9061 1.3901-0.79779 1.7751-0.80491 2.6112-0.0483 0.9976 0.90279 1.9626 0.90162 2.8791-0.003 1.0459-1.0329 4.559-1.9937 5.1454-1.4073 0.2944 0.29439-0.1549 0.96673-1.5903 2.3797l-2.0007 1.9694 1.9363 0.72232c1.8316 0.68323 2.1883 1.1017 2.5103 2.9441 0.2773 1.587 0.6904 1.974 1.8977 1.7781 1.4744-0.23925 2.2732 0.28463 2.6032 1.7071 0.1916 0.82568 0.0004 1.2475-0.9969 2.2018-0.6786 0.64925-1.8309 1.4934-2.5605 1.8759-1.5996 0.83853-2.4659 1.75-3.0009 3.1572-0.2699 0.70978-0.9444 1.2862-2.0694 1.7684-2.0653 0.88529-2.3927 1.3776-1.5414 2.3182 0.8307 0.91802 2.6793 0.94958 4.0046 0.0684 1.4367-0.95525 4.8814-4.5003 4.8814-5.0237 0-0.24488 0.3091-0.83818 0.6869-1.3184 0.678-0.86199 0.6987-0.86409 1.6109-0.16298 0.5082 0.39064 0.7169 0.71404 0.4636 0.71867-0.2533 0.005-0.6359 0.33622-0.8503 0.73683-0.3183 0.59472-0.1816 0.92489 0.7448 1.7992 1.4783 1.3953 1.4319 2.3421-0.1921 3.9162-0.7297 0.70722-1.3267 1.56-1.3267 1.8952 0 1.2164-1.9333 4.3817-3.2412 5.3067-5.4191 7.3853-10.27 7.1528-12.713 8.9943-1.9044 2.0967-0.25801 4.8301-1.5926 6.8767-0.4997 0.75664-1.106 1.9727-1.3474 2.7024-10.241-1.0349-5.5916 18.858-4.5112 20.266 2.3849 39.937-0.8068 51.328-10.966 63.403-6.5424 7.7768-12.645 2.3652-4.9507 15.415-0.1242 0.12423-0.027 0.22586 0.2164 0.22586 0.6608 0 0.537 0.51345-0.3546 1.4704-0.43817 0.4704-1.0211 0.7692-1.2953 0.66398-1.2088-0.46384-0.905 2.1005 0.3746 3.1625 0.3497 0.2902 0.98697 1.2161 1.4163 2.0574 0.4292 0.8414 1.8239 2.6844 3.0994 4.0956 1.8011 1.9928 2.533 2.5502 3.2775 2.4961 1.2101-0.088 1.8844 0.32121 1.8842 1.1435 1.4867 4.5017 4.4849 6.896 9.1647 7.3526 0.5583 0.0454 0.932 0.21696 0.8305 0.38121-0.1015 0.16427 0.01 0.29865 0.2432 0.29865 0.2353 0 0.3733 0.38378 0.3067 0.85286-0.1427 1.0046-1.696 1.3419-2.9901 0.64934-0.6562-0.35118-1.1135-0.30816-2.2707 0.21368-1.3729 0.61909-2.2738 1.732-1.6101 1.9891 0.1683 0.0652 1.0735 0.49489 2.0117 0.95487 1.8579 1.03 1.5193 2.8513 1.4292 3.5435 0.4259-0.2633 0.9635 0.8826 1.0416 2.2205 0.051 0.86473-0.8977 2.8364-1.6485 3.4277-0.41 0.32291-0.3199 0.74426 0.4814 2.2513 0.5422 1.0197 1.095 1.9501 1.2285 2.0675 0.1335 0.11743 0.1037-0.0261-0.066-0.3189-0.2125-0.36627-0.1666-0.44442 0.1471-0.25054 0.3529 0.2181 0.354 0.40478 0 0.82534-0.3702 0.4461-0.3284 0.49644 0.2333 0.28091 0.4512-0.17315 0.5965-0.12043 0.4265 0.15465-0.1418 0.22948-0.1 0.51505 0.094 0.6346-0.50675 1.9705-0.47288 4.0159-1.1011 5.4346-0.3945 0.88128-0.8926 1.6023-1.1069 1.6023-0.2157 0-0.097 0.58779 0.2658 1.3173 2.2214 2.1257 3.6046 3.0782 5.868 4.548 7.3649 6.87 7.7116 8.3193 16.595 15.357 10.528 28.983 83.436 23.155 132.19 24.996zm-1.3038-134.68c-0.4169-0.16498-1.0139-0.22218-1.3266-0.12713-0.503 0.15288-0.5033 0.12678 0-0.22621 0.311-0.21947 0.9933-0.29555 1.5162-0.16906l0.9508 0.22997-0.8887-0.73309c-0.8509-0.70194-0.8557-0.73309-0.1128-0.73309 0.4267 0 0.7001 0.0757 0.6076 0.16819-0.093 0.0925 0.022 0.39709 0.254 0.67687 0.2322 0.27978 0.2734 0.51129 0.091 0.51449-0.1818 0.003-0.075 0.17114 0.2379 0.37324 0.5054 0.32661 0.5054 0.36512 0 0.3466-0.3127-0.0114-0.9097-0.15581-1.3266-0.32078zm-7.1222-4.9534c0.1091-0.41695 0.333-0.7581 0.4977-0.7581 0.1646 0 0.2101 0.34115 0.1011 0.7581-0.1091 0.41695-0.333 0.7581-0.4977 0.7581-0.1646 0-0.2101-0.34115-0.1011-0.7581zm-6.2541-0.20394c-0.2689-0.30479-0.3703-0.55416-0.2256-0.55416 0.1448 0-0.062-0.35904-0.4588-0.79789-0.3972-0.43884-0.6795-0.86526-0.6274-0.94761 0.3587-0.56671-0.1217-0.88168-1.5162-0.99404l-1.6109-0.12981 1.3266-0.63524c1.2287-0.58832 1.2567-0.63813 0.3791-0.67412-0.9458-0.0388-0.9459-0.0396-0.093-0.38213 0.4698-0.1888 1.6438-0.28105 2.6089-0.205 1.4775 0.11641 1.8726 0.32423 2.4998 1.3149 0.4098 0.64715 0.8704 1.1766 1.0237 1.1766 0.1532 0 0.2786 0.51842 0.2786 1.152 0 0.74278-0.1102 0.97844-0.3101 0.66334-0.2315-0.36484-0.3115-0.32624-0.3159 0.15224 0 0.35253-0.2027 0.76267-0.4434 0.91142-0.2695 0.1666-0.3348 0.10409-0.1698-0.16281 0.173-0.28001 0.061-0.35371-0.3183-0.20837-0.3224 0.1237-0.4917 0.3776-0.3764 0.56423 0.351 0.5678-1.1272 0.34957-1.6504-0.24366zm-5.3865-2.2599c-0.3865-0.46567-0.3606-0.56857 0.1431-0.56857 0.3382 0 0.6149 0.25585 0.6149 0.56857 0 0.31271-0.064 0.56857-0.143 0.56857s-0.3555-0.25586-0.615-0.56857zm8.727-15.524c-0.2626-0.49061-0.3612-1.08-0.2191-1.3099 0.142-0.22983-0.016-0.52315-0.3514-0.65183-0.5449-0.20908-0.5374-0.28251 0.071-0.69067 0.6337-0.42537 2.4826-0.55258 2.6501-0.18235 0.838 1.8524 1.2078 3.0249 0.8926 2.8301-0.2192-0.13546-0.3989-0.023-0.3993 0.24989-0.0003 0.27528-0.4827 0.5297-1.0835 0.57147-0.7945 0.0552-1.2098-0.16218-1.5601-0.81671zm-90.71-8.1711c-1.6977-0.90992-2.4618-0.97159-5.1555-0.41613-2.6254 0.54139-3.1604 0.5301-4.0008-0.0844-0.7063-8.1977 9.1518-17.682 11.16-19.751 3.5376-4.4591 2.7502-5.2227 4.2835-5.6821 1.0647-0.31899 3.6668-1.1695 4.3426-2.1907 0.5602-0.84658 1.3704-1.5418 1.9471-1.6709 4.0463-0.9055 4.6996-1.4857 4.3938-3.902-0.1631-1.289 0.5102-1.5922 1.3333-0.60051 0.2602 0.31356 1.0054 0.708 1.6558 0.87655 0.9518 0.24662 1.3525 0.14903 2.0522-0.49979 1.6863-1.5636-0.2623-3.3114-3.8988-3.4971-4.5409-0.23181-5.0956-0.17823-6.3813 0.61637-0.709 0.4382-1.8104 0.79672-2.4476 0.79672-1.0877 0-5.693 1.6492-8.2282 2.9466-4.9483 3.4062-10.553 7.4678-14.593 11.048-2.3781 2.5166-6.4168 4.3692-7.776 7.6449-0.2545 0.78031-1.5895 1.4803-3.0269 1.5871-1.1174 0.083-2.8838 1.441-3.3195 2.552-0.1219 0.31071-0.235 0.0288-0.2515-0.62642-0.019-0.75161 0.1888-1.2753 0.5627-1.4188 0.3259-0.12507 0.4864-0.39918 0.3566-0.60913-0.1297-0.20994-0.074-0.38172 0.1238-0.38172s0.7301-0.788 1.1828-1.7511c1.8125-3.8558 4.8245-7.5484 8.0966-9.9257 1.7315-1.258 3.6458-3.0055 4.2541-3.8832 7.372-12.235 39.436-23.458 55.279-26.125 6.0125-1.0296 12.668-1.9456 14.649-0.4281 0.6567 3.3782-0.5085 6.3194 6.4755 11.769 1.8258 1.287 1.9893 4.5398 1.6186 5.5057-0.128 0.33369-0.8291 0.85584-1.5578 1.1604-1.1805 0.49324-1.2973 0.66741-1.0702 1.5968 0.1401 0.57376 0.2465 1.4364 0.2364 1.9169-0.013 0.59824 0.1301 0.78442 0.4528 0.59058 0.3507-0.21069 0.3703-0.14329 0.077 0.26347-0.2996 0.41484-0.1398 0.79198 0.6633 1.5648 1.1496 1.1062 1.2899 1.0706 0.6311-0.16026-0.0738-1.9849 0.3817-1.9586 2.0165-2.8462 0.4132-0.34288 0.7671-0.2489 1.6181 0.42966 1.1735 0.93572 1.5974 2.1272 0.7568 2.1272-1.1124 0-2.4489 0.90384-2.4722 1.6718-0.023 0.76289-0.037 0.76064-0.3668-0.0608-0.1885-0.46907-0.4176-0.85285-0.5091-0.85285-0.091 0-0.095 0.38378-0.01 0.85285 0.087 0.46908 0.056 0.63859-0.068 0.37669-0.1243-0.2619-0.3634-0.39129-0.5313-0.28754-0.1678 0.10375-0.5837-0.23633-0.924-0.75574-0.3403-0.5194-0.8138-0.94436-1.0522-0.94436-0.2385 0-0.3258 0.10772-0.1942 0.23936 0.3877 0.38761-0.466 1.6559-1.1145 1.6559-0.3717 0-0.5144 0.21211-0.3793 0.56412 0.1565 0.40778 0 0.53036-0.5816 0.44232-1.2361-0.18864-1.6955-1.1512-1.7854-3.7413-0.091-2.6101-0.4381-3.19-2.0865-3.4833-2.2332-0.93905-4.1325-3.6012-6.4138-2.7479-1.895 0.60023-3.2134-0.46976-4.9499-0.22235-1.3806 0.62903-1.4514 1.7676-0.216 3.473 0.8777 1.2117 1.3544 1.5209 2.4923 1.6168 1.2107 0.10199 1.5546 0.35931 2.4643 1.8435 1.8458 13.556-11.278 27.693-10.797 25.196-1.0738 0.53733-2.5165 1.2928-3.2059 1.6789-5.7069 3.694-17.828 8.9614-15.3 5.3976 1.0135-1.4285-5.1746-2.4363-4.528-2.8821 1.8367-1.2662 13.993-0.99919 13.37-5.1948 0.3843-0.33717 0.6986-0.91285 0.6986-1.2793 0-0.56421-0.1886-0.61755-1.2319-0.34824-1.9245 0.49684-5.6528 0.39916-7.0362-0.18433-0.7946-0.33519-1.8088-1.3442-2.7622-2.7481-1.398-2.0586-1.6114-2.2184-2.9622-2.2184-1.7436 0.002-2.6647 1.3459-3.9257 2.1497 1.2032 1.3679-3.1418-0.56734-1.9959 4.9959 1.3584 0.96727 1.7284 3.5099 0.6039 4.9732-1.649 1.4751-3.7997 0.78085-5.4269 2.0006-1.6489 1.2577-3.3261 1.3458-5.3158 0.27939zm37.225-12.725c0.1427-0.17474 6.2544-7.5301 1.7622-9.2122-4.1285-1.5446-4.2806-2.1033-4.3622 3.7162-0.048 3.404-0.3934 5.1656 0.1963 5.5968 0.8336 0.60955 0.604 0.61918 2.4036-0.1009zm-28.209-6.2222c0.3773-0.41696 0.9825-0.7581 1.3448-0.7581 0.3624 0 0.7372-0.21321 0.8331-0.47381 0.2807-0.76342-0.1038-1.4214-0.8307-1.4214-0.7181 0-3.4178 1.9776-3.9246 2.8748-0.4906 0.86856 1.7664 0.67462 2.5774-0.22146zm6.7997-2.4c0.3797-0.27762 0.8032-1.1731 0.9413-1.99 0.2275-1.3464 0.3516-1.4779 1.328-1.4069 2.4504 0.17813 4.0144-1.7915 3.1907-4.0182-0.246-0.66503-0.6098-0.79825-2.1804-0.79825-2.1179 0-2.2335 0.10379-2.6305 2.3632-0.2806 1.5971-0.3015 1.6154-1.7218 1.5013-1.7795-0.14298-3.0935 0.66523-3.3856 2.0824-0.4102 1.9905 2.6843 3.5636 4.4583 2.2664zm9.4241-7.4944c0.274-0.43779 0.1786-1.0208-0.3408-2.0848-0.6337-1.298-0.8819-1.477-2.0478-1.477-1.109 0-1.3476 0.14806-1.4543 0.90263-0.07 0.49645 0.1857 1.4848 0.5686 2.1963 0.5789 1.0757 0.8814 1.2749 1.7951 1.1821 0.6044-0.0613 1.2701-0.38501 1.4792-0.71928zm33.764 16.244c-0.4896-1.4564-0.4816-1.8211 0.074-3.3955 0.5234-1.4836 0.5015-2.8551-0.06-3.764-0.1713-0.27724-0.11-0.34234 0.1633-0.17341 0.2456 0.15183 0.4376 0.0528 0.4376-0.22572 0-0.31201 0.4805-0.49618 1.2944-0.49618 0.9675 0 1.1986 0.11547 0.915 0.45721-0.2087 0.25146-0.2813 0.61592-0.1614 0.8099 0.3221 0.52131-0.8069 1.3177-1.4943 1.0539-0.3692-0.14169-0.4973-0.0727-0.3394 0.18281 0.1395 0.22572 0.66 0.33271 1.1568 0.23774 1.5974 0.49843 1.3477 4.348 0.3215 5.408-0.3054 0-0.5553 0.17057-0.5553 0.37905 0 0.76275-1.4697 0.36523-1.7518-0.47381zm19.179-5.8929 0.1829-1.7828 0.1286 1.4714c0.071 0.80926-0.011 1.6116-0.1828 1.7829-0.1713 0.17131-0.2292-0.49081-0.1287-1.4714zm-1.2471-0.0408c0.1382-0.52835 0-0.70611-0.5093-0.66333-0.5988 0.0501-0.7097-0.26486-0.7803-2.2159-0.067-1.8556-0.011-2.1015 0.3037-1.3358 0.3156 0.7671 0.4507 0.83632 0.7399 0.37905 0.2602-0.41157 0.3553-0.42829 0.3595-0.0632 0 0.2729 0.1745 0.39196 0.3806 0.2646 0.2225-0.13756 0.2733 0.0325 0.1251 0.41885-0.1632 0.42533-0.1039 0.5604 0.1714 0.39024 0.3903-0.24122 0.3147 1.646-0.1231 3.0735-0.2374 0.77401-0.873 0.5379-0.6675-0.24795zm-6.7035-8.4109c0-0.18895 0.3411-0.34356 0.7581-0.34356 0.4169 0 0.758 0.0654 0.758 0.14532 0 0.0799-0.3411 0.23453-0.758 0.34356-0.417 0.10903-0.7581 0.0436-0.7581-0.14532zm-0.6318-0.98819c0-0.27088 0.3181-0.49251 0.7068-0.49251 0.3888 0 0.805-0.25586 0.925-0.56857 0.1622-0.42249 0.8165-0.56469 2.5467-0.55347 1.8659 0.1109 3.0122-0.34247 0.8123 0.80801-1.9382 1.0136-4.9908 1.5069-4.9908 0.80654zm-152.41-56.456c-0.6279-0.2638-0.6012-1.3015 0.058-2.2421 0.75668-1.6125 1.1608-3.436 2.4208-3.9987 1.9103-0.0747 3.2998 0.11062 3.7783 0.50373 0.7092 0.58282 0.4183 2.5801-0.4655 3.1959-3.3607 2.3415-4.782 2.9652-5.7912 2.5412zm17.715-4.6951c-0.2263-0.4228-0.5715-0.66979-0.7671-0.54889-0.1957 0.12091-0.2866-0.002-0.2022-0.27367 0.084-0.27142 0.2578-0.9686 0.3853-1.5493 0.2914-1.3276 1.7123-1.9501 3.055-1.3384 0.5203 0.2371 0.9601 0.53164 0.9772 0.65453 0.017 0.12289 0.1041 0.66124 0.1932 1.1963 0.115 0.6902-0.119 1.2369-0.8053 1.8816-0.8413 0.79038-1.0692 0.84517-1.749 0.42057-0.43-0.2685-0.6685-0.30501-0.5302-0.0812 0.1384 0.22386 0.1622 0.40702 0.053 0.40702s-0.3837-0.34591-0.61-0.76871zm-6.6639-5.1104c-1.0225-0.23314-2.2747-0.64922-2.7827-0.92461l-0.9238-0.50072 1.593-1.3702c-1.8032-6.237 0.7829-3.6695 4.7944-4.9261 4.5638-3.2101-2.3179 0.12332-1.5225-2.6515 0.4539-1.43 1.5699-1.7143 3.879-0.98799 1.5769 0.49599 2.1585 0.88729 2.4505 1.6486 0.5612 1.284 1.1608 2.5081 1.4559 3.857 0 1.0247-1.3606 2.1449-2.9704 2.4458-2.8303-0.43233-2.4706 0.50733-2.0775 2.2507 0.1879 1.1576 0.1173 1.2667-0.9166 1.4185-0.6161 0.0904-1.9568-0.0264-2.9793-0.2595zm-4.3229-8.1457c-0.6988-0.16498-0.8078-0.30355-0.4249-0.54021 0.651-0.40236 2.6616-0.58539 2.8624-0.26057 0.2767 0.44771-1.4835 1.026-2.4375 0.80078zm0.6956-15.443c-1.1832-0.26465-1.2975-1.9932-0.1317-1.9932 0.5672 0 1.7104 1.0044 1.7104 1.5027 0 0.41646-0.7993 0.66482-1.5787 0.49052zm9.7229-5.4057c-1.6204-0.2297-6.628-2.5688-6.628-3.096 0-0.74347 4.2567-0.0919 7.3915 1.1314 1.5379 0.60018 2.8428 1.4978 2.8428 1.9555 0 0.30118-1.5189 0.30503-3.6063 0.009zm-78.552 286.79c0.6795-0.51584 0.9036-1.3676 0.3599-1.3676-0.7147 0-2.3442 0.98697-2.3469 1.4214 0 0.61799 1.1429 0.58692 1.987-0.0538zm-8.8508-1.1324c0.2387-0.28759 0.9845-0.62934 1.6574-0.75947 1.6334-0.31589 3.6872-1.4318 3.6872-2.0034 0-0.87609-0.8348-0.96964-1.8638-0.20889-0.5685 0.42032-2.13 1.0606-3.4701 1.4229-2.8334 0.76594-4.1423 1.4832-4.1423 2.27 1.3367 0.82425 2.8169 0.0417 4.1316-0.72117zm-5.4848-11.271c-0.323-0.5226-1.3001-0.39538-1.3001 0.16928 0 0.278 0.1122 0.61766 0.2494 0.75484 0.3428 0.34277 1.3087-0.50675 1.0507-0.92412zm9.5746-0.99045c1.2354-0.80373 0.6918-1.6199-1.0789-1.6199-1.5381 0-3.7311 0.88579-3.7311 1.5071 0 1.1699 3.0745 1.242 4.81 0.11285zm-8.4109-9.2009c2.2023-1.1611 5.5828-2.5695 6.7796-4.6185-0.6011-0.97267-4.1585 0.68559-6.6006 3.0768-1.5792 1.5463-1.8106 1.9207-1.1874 1.9207 0.4258 0 0.8795-0.17058 1.0084-0.37905zm-10.045-4.3216c2.611-2.3914 4.9349-4.0139 7.5143-6.3886 2.7614-2.5569 4.0069-3.407 6.2259-4.2498 1.942-0.73759 3.5197-2.0818 3.9186-3.3385 0.3292-1.0372-0.7124-1.791-2.4746-1.791-2.2632-0.54606-1.1704-2.1933-2.107-4.1694-0.5789-0.63976-0.5789-0.77588 0.0004-1.8961 0.7235-1.3991 0.6148-1.5925-0.9934-1.7686-1.1644-0.12747-3.7451 1.0917-3.7451 1.7692 0 0.92492 0.628 1.591 2.1243 2.2528 1.5726 0.69563 1.6428 0.79176 1.2784 1.7501-0.212 0.5577-0.7213 1.441-1.1318 1.9628-0.4802 0.61054-0.668 1.2605-0.5267 1.8233 0.3354 1.3364-0.1383 2.3163-1.3652 2.8245-2.326 3.5696-8.3285 4.846-9.357 8.6932-0.1315 0.53487-0.4686 1.3272-0.7491 1.7608-0.2804 0.43359-0.3956 0.90266-0.2559 1.0424 0.4625 0.46252 1.6439 0.26336 1.6439-0.27708zm12.698-15.01c0.1289-0.20848 0.4049-0.37905 0.6133-0.37905 0.2085 0 0.2737 0.17057 0.1448 0.37905-0.1288 0.20848-0.4048 0.37905-0.6133 0.37905s-0.2736-0.17057-0.1448-0.37905zm-5.1171 13.646c0-0.20848-0.1706-0.37905-0.3791-0.37905s-0.379 0.17057-0.379 0.37905c0 0.20847 0.1705 0.37904 0.379 0.37904s0.3791-0.17057 0.3791-0.37904zm2.2281-1.4796c0.7346-0.46536 0.2008-1.1432-0.7123-0.90441-0.7768 0.20314-0.9517 0.5475-0.505 0.99417 0.3304 0.33046 0.5832 0.3118 1.2173-0.0898zm-3.9744-18.072c0.34642-0.90278 0.32992-0.91662-1.0966-0.91662-1.3889 0-1.6344 0.29881-0.8718 1.0613 0.6421 0.64215 1.6962 0.56468 1.9684-0.14471zm0.98822-1.7884c0-0.27102-0.1925-0.68529-0.4278-0.92056-0.1666-1.0454 2.4661-3.446 0.9016-3.5143-0.6113 0.00003-2.7481 2.2495-2.7481 2.8929 0.84031 1.2246 1.4024 2.1461 2.2743 1.5419zm77.155-0.34308 1.0026-0.45679-0.2318-3.4284c-0.4323-6.3962-0.8165-7.6386-2.2462-7.2648-1.0911 0.28535-2.1448-0.41471-2.1448-1.425-0.45786-1.4193-1.369-2.4329-1.7165-3.6464-0.57697 0-4.6357 2.2998-5.2404 2.9695-0.3865 0.42791-1.2393 0.88974-1.8952 1.0263-2.9518 0.61437-3.7078 2.3243-1.9507 4.4125 0.84114 1.0277 1.1345 2.3599 1.7315 3.3785 1.0625 1.4922 3.0718 1.5532 4.0097 0.12179 0.3528-0.53851 1.5779-1.7419 2.7224-2.6742 1.8519-1.5086 2.1436-1.6324 2.6508-1.1252 0.5073 0.5072 0.4172 0.73907-0.8184 2.1067-0.9478 1.0491-1.3884 1.8973-1.3884 2.6729 0 1.0937 0.064 1.136 1.7057 1.136 1.6203 0 1.7057 0.0538 1.7057 1.074 0 1.6648 0.421 1.8894 2.104 1.1226zm-10.569-8.514c-0.4637-0.46369-0.26-1.9376 0.2974-2.1516 0.3025-0.11606 0.9421 0.12141 1.4214 0.52779 0.8561 0.72584 0.8584 0.74884 0.1356 1.3076-0.7893 0.61024-1.448 0.72251-1.8544 0.31613zm-17.831 8.3017c0.2344-0.15317 0.7964-1.1429 1.2488-2.1993 0.97107-1.8833-0.12406-3.8336 1.0006-4.7125 0.3246 0 0.5462-0.3709 0.5462-0.91393 0-1.2405-2.0604-2.9538-3.3696-2.8018-0.8242 0.0956-1.0446 0.37768-1.3199 1.6895-0.2737 1.3041-0.5017 1.599-1.3267 1.716-3.3032-0.24978-2.1992-2.0268-1.899-4.6808l-1.8635-1.8635c-2.055-2.055-3.3399-2.3682-5.0146-1.2222-1.2502 0.85562-1.4931 1.2547-1.4999 2.465 1.2975 2.2763 3.4377 6.2996 6.8149 5.7941 0.3139 0.004 0.5263 0.22557 0.4721 0.49246 0.48163 1.6326 3.1522 1.6957 3.9042 4.7005 0.3025 1.3776 1.4151 2.1188 2.3064 1.5365zm206.5-7.838c1.0607-0.30092 3.4637-0.69964 5.3399-0.88606 2.9412-0.29225 3.9195-0.59007 7.0963-2.1602 2.2462-1.1102 4.2079-2.3866 5.0247-3.2695 0.79-0.85384 1.9325-1.6078 2.7838-1.837 1.9743-0.53166 3.1749-1.9233 3.533-4.0953 0.1631-0.98902 0.4075-2.3525 0.5434-3.0301 0.1357-0.67756 0.1634-1.2319 0.062-1.2319-1.1187 0-9.5308 4.7062-11.512 6.4404-0.6532 0.57175-1.8378 1.1615-2.6324 1.3106-0.7947 0.14908-2.2219 0.66223-3.1715 1.1403-2.8592 1.4394-6.717 2.4018-12.909 3.2204-3.2314 0.42722-6.4041 0.77659-7.0506 0.77637-1.6166 0-3.5627 0.72702-3.5627 1.332 0 0.85199 3.0162 1.6975 7.96 2.2315 6.3394 0.68471 6.2892 0.68437 8.4953 0.0586zm-202.06-9.04c0.8074-1.2891-2.0045-2.6609-3.3851-1.6514-0.6128 0.44811-0.6467 0.65685-0.2485 1.5308 0.3951 0.86711 0.6586 0.99508 1.8418 0.89436 0.7975-0.0678 1.5545-0.3947 1.7918-0.77371zm186.61-2.0096c0.4685-0.30647 1.047-1.3148 1.3308-2.3194 0.2761-0.97749 0.7006-1.8435 0.9433-1.9244s1.1379 0.79581 1.9893 1.9483 1.9004 2.284 2.331 2.5145c1.6562 0.88637 6.1376-1.73 7.3283-3.5471 0.6054-0.92393 1.3168-2.1037 3.7617-1.1104 3.836 1.5585 7.7817 1.9974 10.9-2.2341 1.1063-1.1886 1.6265-1.4645 2.7602-1.4645 2.833 0 5.9214-1.9737 5.9214-3.7841 0-1.6153 0.748-2.236 2.8428-2.359l1.8953-0.11122 0.1076-3.6282c0.095-3.2109 0.016-3.745-0.6908-4.6434-1.1223-1.4267-2.4293-1.3248-3.8693 0.30171-0.7534 0.85099-2.0556 1.6568-3.6809 2.2779-1.9134 0.73115-2.8554 1.3682-3.9378 2.6632-1.5785 1.8884-2.3212 2.0641-4.6357 1.0971-2.5858-1.0804-6.5415 0.21004-9.7 3.1644l-1.8246 1.7067-1.8746-0.80639c-2.0175-0.86791-4.663-1.0431-6.3078-0.41779-0.5622 0.21375-1.7551 1.1868-2.6507 2.1624l-1.4846 2.9253-2.133-2.0821c-1.5661-1.5287-8.1533-0.0916-9.4297 1.1408-0.2169 0.40517-0.499 1.7379-0.6268 2.9615-0.2037 1.9482-0.1153 2.4106 0.7105 3.7188 1.245 1.9723 1.9416 2.5088 3.6246 2.7921 1.7583 0.29592 5.305-0.22648 6.4-0.94265zm-15.991 0.59067c1.856-0.43003 2.8428-1.5693 2.8428-3.2819 0-1.1275-0.2278-1.4375-1.7799-2.4218-2.286-1.4498-4.1744-1.5092-5.4317-0.17084-1.4199 1.5115-1.233 3.3784 0.4969 4.9638 1.5246 1.3972 1.6477 1.4261 3.8719 0.91078zm-180.43-1.14c0-0.48644-0.1922-0.94854-0.4271-1.0268-0.5379-0.17929-0.9487 0.83683-0.6515 1.6114 0.3276 0.85351 1.0786 0.44645 1.0786-0.5846zm26.495-2.5014c0.3209-0.83625-0.4191-1.6682-1.484-1.6682-1.3065 0-1.7324 1.4294-0.7259 2.436 0.679 0.67896 1.8048 0.28782 2.2099-0.7678zm-84.666-0.55526c0.49207-0.91946-0.0855-1.871-1.1357-1.871-0.86233 0-1.6332 1.641-1.0465 2.2278 0.67061 0.67061 1.7245 0.4983 2.1821-0.35676zm67.742-0.63756c0.8359-1.0944 0.5737-2.8984-0.5686-3.9106-1.4946-1.3246-2.7088-1.9374-3.2373-1.634-0.2521 0.14476-0.9228 0.70489-1.4903 1.2448-1.1211 1.0665-1.4423 3.2835-0.598 4.1277 0.5517 0.55174 2.0642 0.59977 2.388 0.0758 0.3583-0.57979 1.0562-0.45076 0.8247 0.15245-0.1121 0.29236-0.093 0.64256 0.043 0.7783 0.3921 0.39201 2.119-0.15408 2.6387-0.83442zm9.5709-0.60405c0-1.0532-1.3082-1.7666-3.2397-1.7666-1.1845 0-1.3088 0.10208-1.3088 1.074 0 1.4567 0.1963 1.5794 2.5269 1.5794 1.8667 0 2.0216-0.068 2.0216-0.88678zm-27.551-0.77273c0.4617-1.2034-1.8568-1.9079-2.7473-0.8349-0.3527 0.42496-0.3027 0.62161 0.2378 0.93611 0.9722 0.5655 2.2738 0.513 2.5095-0.10121zm30.529-3.1532c0.7267-0.45906 0.8504-0.77837 0.6636-1.7125-0.1905-0.95247-0.1396-1.0735 0.2985-0.70984 0.4077 0.33833 0.6671 0.29944 1.1369-0.17039 0.8152-0.81514 0.7931-0.94997-0.5863-3.5814-1.2233-2.3336-1.6839-2.6188-2.9515-1.8271-1.649 1.0298-3.8902-1.2735-4.3249-4.4445-0.1337-0.9756-0.7091-2.3389-1.3754-3.2587-0.6301-0.86975-1.1455-1.7882-1.1455-2.0409 0-0.25278 0.5284-1.1227 1.1742-1.9331 1.0574-1.3269 1.1576-1.6763 1.0074-3.5098-0.69212-4.2441-4.9142-6.4152-6.5768-10.165-0.5537-1.2784-1.9512-2.4677-4.6146-3.9271-1.5157-0.83056-1.6586-0.84637-2.2553-0.24965-1.0296 1.0296-0.8032 3.0722 0.5221 4.7109 2.4909 2.3528 5.7086 3.9619 7.1355 6.983 1.1644 2.5945 1.0655 3.7771-0.3957 4.7346-0.7992 0.52364-1.1926 0.55658-2.3631 0.19788-4.5549-1.2583-6.296-6.1112-10.059-8.1345-2.4274-1.0529-3.6618 0.003-6.2528-0.0528-2.2089-2.7119-4.166-5.9591-7.1117-7.4287-2.1031-0.93959-2.9477-0.23533-4.7986 0.85988-0.9488 0.68583-1.9082-0.0265-2.3426-1.7394-0.13763-3.9295 0.67627-6.7164 1.8556-10.17l-1.2051-1.0768c-1.9986-1.7857-4.9547-2.3352-6.9664-1.2949-1.4179 0.73324-1.9281 2.0298-1.688 4.2899 0.1026 0.9662 0.2775 3.1213 0.3885 4.7891 0.8285 12.443 2.3274 15.592 10.446 21.944 1.4942 1.1691 3.0959 2.1256 3.5594 2.1256 0.9949 0 2.0009-1.0313 3.4286-3.5148 1.1651-2.0267 1.8982-2.5499 3.5729-2.5499 1.7596 0 2.1369 1.0773 1.1144 3.1819-1.018 2.0954-0.622 2.7878 1.6914 2.9573 1.4572 0.10676 1.5999 0.2177 1.9658 1.5283 1.5796 4.0272 5.733 2.4483 8.0346 5.0447 1.1034 1.2626 2.238 2.0737 4.5806 3.2743 0.742 0.38026 1.005 0.30187 1.916-0.57096 1.3213-1.2659 2.1119-1.2755 3.3468-0.0406 0.8886 0.88864 0.949 1.1479 0.7111 3.0524-0.3352 2.6828 0.1212 3.3187 2.1374 2.9781 1.3315-0.22496 1.5041-0.15025 2.1146 0.91522 0.9496 1.6575 2.1877 1.8154 4.2112 0.53707zm-27.78-1.48c0.2947-1.1744-0.9451-2.6732-1.9062-2.3044-0.8305 0.3187-0.7852 2.3829 0.063 2.877 1.077 0.62733 1.5811 0.47067 1.843-0.5727zm8.4713-1.3637c0.4897-0.52559 0.7729-1.3446 0.7729-2.235 0-1.1343-0.2585-1.6324-1.3399-2.5818-2.5029-2.1976-5.104-1.3142-5.104 1.7333 0 1.4436 0.1332 1.7127 1.0424 2.1057 0.5733 0.24782 1.4492 0.75589 1.9464 1.129 1.1824 0.88739 1.7441 0.85574 2.6822-0.15116zm231.94-18.334c0.8508-0.9783 3.8835-3.4495 4.5745-3.7869 2.6048-1.2715 0.5589-6.0439 0.3082-6.4594-0.1561-0.15604-0.6673-0.10324-1.1361 0.11734-1.4875 0.70001-4.4062 0.17878-7.4103 0.44544-10.631-6.8208-28.647 3.032-42.494-9.5222-2.1433-1.7392-3.3122-3.611-4.0207-6.438-0.6144-2.4512-1.0394-1.3876-2.4578 1.4147-0.5408 1.0685-2.7778 3.0202-3.4782 3.8395-4.6543 11.858-12.485 24.48-19.643 33.845 0 0.20593-0.5251 0.97248-1.1669 1.7035-1.3332 1.5184-1.3234 2.4475 0.033 3.1409 31.646 0.42016 51.615-11.11 76.892-18.3zm-245.26 13.15c0.072-0.48261-0.287-1.2084-0.9032-1.8247-0.9821-0.98211-1.0442-0.99477-1.5415-0.31468-0.7009 0.95858-0.654 2.6481 0.094 3.3965 1.2583 0.78951 1.7671-0.17711 2.3502-1.2572zm-5.6647-0.52847c0.5198-1.6739 0.5085-1.8467-0.1713-2.6143-1.098-1.2398-3.9873-2.9814-4.9461-2.9814-1.2263 0-1.4034 1.1141-0.4807 3.024 0.9015 1.8659 3.6535 4.5965 4.4911 4.4563 0.3027-0.0507 0.8008-0.89872 1.107-1.8846zm-50.711-19.73c1.2753-1.088 1.5612-1.9524 1.0308-3.1165-0.3447-0.75651-0.31216-1.0723 0.16548-1.6065 1.2103-1.3256 0.34538-2.6403-0.58231-3.4962-0.25326 0.007-1.5098 0.98713-2.7924 2.1795-2.1195 1.9705-2.3141 2.2802-2.1365 3.3999 0.73786 2.0597 2.1204 4.0658 4.3149 2.6397zm32.569-0.84734c0.6519-0.78557 0.2443-4.4278-0.9314-8.3216-0.5052-1.673-1.0335-3.724-1.1741-4.5579-0.3541-2.1004-1.746-4.1186-3.373-4.8906-1.4226-0.6751-3.0282-2.7399-3.4358-4.4187-0.3814-1.5706-1.8553-3.179-2.638-2.8786-2.7244 6.718 6.6298 20.632 7.6904 22.422 1.8822 3.1727 2.8653 3.846 3.8619 2.6452zm-35.347-8.0639c0.0837-0.25111-0.11787-0.45658-0.44796-0.45658s-0.60017-0.14319-0.60017-0.3182c-2.0244-1.6144-2.396-4.1862-1.9771-6.2905 0.33683-1.5793 0.29554-1.8033-0.42544-2.3083-12.364 0.26095-3.4179 7.2508 0.39437 10.469 0.80118 0.29199 2.8371-0.43792 3.0563-1.0958zm-9.5973-15.42c-0.30701-0.73477-0.73223-1.336-0.94493-1.336-0.21271 0-0.89997 0.52503-1.5273 1.1667-2.9424 3.7881 4.2513 4.5982 2.4722 0.16922zm68.266-33.52c-0.2394-0.38736 2.1229-0.68109 9.4573-1.176 6.8626-0.46302 7.7885-0.62056 9.0263-1.5357 0.9279-0.68604 1.3015-0.75066 2.5329-0.4381 1.8946 0.48091 2.4248 0.14844 1.9124-1.1993-0.2161-0.56855-0.5333-0.94701-0.7048-0.84103-0.1715 0.10599-2.5172 0.0284-5.2126-0.1725-9.7559-0.72702-12.354-1.0595-15.284-1.9561-1.3772-0.42133-3.0574-0.94859-3.6411-0.7228-9.4432 3.6528-12.111 0.86553-12.319 1.0269 0.70418 0.91369 2.9187 2.1491 4.0107 2.571 2.6402 1.2869 1.865 0.46533 0.3917 0.83511-1.5981 2.6443 9.1866 3.7549 9.8308 3.6085zm-12.819-4.4628c-0.3688-0.0961-0.8805-0.0898-1.1371 0.0141-0.2567 0.10383 0.045 0.18246 0.6705 0.17474 0.6254-0.008 0.8354-0.0927 0.4666-0.18878zm-8.2371-5.0534c0-0.57064-1.6821-1.1125-2.6597-0.85686-0.8159 0.21333-0.8072 0.2383 0.2436 0.70245 1.3545 0.59832 2.4161 0.66617 2.4161 0.15441zm25.396-0.89061c2.0377-0.12154 2.8099-0.65571 1.3535-0.93619-0.4022-0.0774-0.9687-0.37829-1.259-0.66852-0.2902-0.29023-0.8621-0.52769-1.2708-0.52769-1.8576-0.51915-4.0096-1.0791-5.2675-0.39962 0 0.18922 0.2811 0.39918 0.6246 0.46659 0.5235 0.10273 0.4602 0.3177-0.3912 1.3288-0.8914 1.0586-0.941 1.2481-0.4055 1.5478 0.3834 0.21456 1.339 0.15037 2.5707-0.17266 1.0783-0.28279 2.8986-0.57012 4.0452-0.63852zm7.1454-1.7904c1.7232-3.0883-4.4226-0.68127-6.4081-3.7645-0.3593-0.23421-1.2103-0.3679-1.8495-0.3679-1.7518 0-1.4246 0.99256 0.4193 1.2718-0.084 1.9777 4.2222 2.5949 6.6064 3.262 0.021 0.008 0.5754-0.17242 1.2319-0.4013zm10.101-6.3652c5.0583-0.48824 5.972-0.69164 5.7841-1.2874-0.08-0.25291-1.2032-0.81777-2.4965-1.2552-1.2932-0.43748-2.4625-0.90655-2.5984-1.0424-0.1358-0.13584-0.7776-0.24697-1.4262-0.24697-1.6851 0-7.0848-1.8187-7.9737-2.6856-0.7475-0.72895-0.7462-0.73649 0.2843-1.692 0.5692-0.52786 1.035-1.1062 1.035-1.2852 0-0.56231-3.0001-1.9176-4.276-1.9316-0.6711-0.007-1.6466-0.25719-2.1678-0.55513-1.4117-0.807-2.0961-0.68504-2.6587 0.47381-0.2783 0.57331-0.4797 1.1599-0.4476 1.3036 0.032 0.14366-0.2533 0.36015-0.6344 0.48111-1.6537 1.363-1.1957 6.2638-0.0265 7.0282 0.3852 0 1.1155 0.41512 1.6228 0.9225 5.5273 3.1132 12.135 2.1403 15.98 1.7724zm213.67-11.454c1.7709-0.69168 4.2606-0.2933 5.3796-1.6301 0.4387-0.53716 1.4799-1.208 2.3138-1.4908 1.783-0.60465 1.9755-1.1497 0.9792-2.7716-0.7741-1.2602-2.7108-2.0053-3.5532-1.3669-1.8893 1.0612-4.2086 1.7111-5.9229 1.3058-2.0109-0.4894-4.052-0.72485-6.0964-1.0193-2.7929-0.41194-2.9577 1.33-0.3895 4.1162 1.5955 1.8085 3.4864 1.9174 5.3171 2.9331 0 0.47171 1.0223 0.43219 1.9723-0.0763zm-207.25-0.69c0.3916-0.63351-0.2123-1.4793-1.2382-1.7343-0.5582-0.13877-1.6134-0.89191-2.3449-1.6737-1.6921-1.8083-4.0795-2.7064-7.0091-2.6369-3.9903 0.0948-5.3117-0.18892-7.3547-1.579-1.0654-0.72495-2.021-1.5739-2.1235-1.8867-0.1025-0.31271-0.7764-0.96936-1.4975-1.4592-2.2683-1.212-3.6962-0.5241-6.271-0.25441-3.6428 0.26539-5.6152 0.69821-5.4262 1.1907 0.1103 0.28761 0.5879 0.52293 1.0613 0.52293 0.9659 0 1.9015 0.9022 1.5409 1.4858-0.6541 1.0584 3.6633 3.0116 8.1307 3.6783 0.9381 0.14001 2.0422 0.48523 2.4534 0.76716 1.0635 0.72911 2.2013 0.63458 2.9548-0.24549 0.8365-0.97685 1.0973-0.95528 2.1628 0.17894 0.4842 0.51541 1.8358 1.2058 3.0037 1.5343 1.1679 0.32846 3.2321 0.92266 4.5872 1.3204 3.5964 1.0557 6.9822 1.4191 7.3703 0.79104zm-88.918-5.7266c-0.34156-0.19948-0.71873-0.75198-0.83815-1.2278-0.11942-0.4758-1.0751-1.9705-2.1237-3.3215s-1.9081-2.7496-1.91-3.1078c-0.005-0.89473-0.93541-0.4793-1.4484 0.64647-0.28132 2.3919 1.7631 3.8407 3.534 5.3803 0.90884 0.92254 2.5586 2.0133 3.0281 2.0021 0.20847-0.005 0.0996-0.17224-0.24199-0.37171zm103.81-0.75142c0.053 0 0.097-0.34114 0.097-0.7581 0-0.41695-0.1384-0.75809-0.3076-0.75809-0.1691 0-0.6585-0.32692-1.0873-0.72649-3.2101-2.218-7.3311-3.4817-10.771-3.8708-4.0982-0.45109-5.4096-0.95656-5.5817-2.1514-0.096-0.66866 0.1726-0.97126 1.2712-1.4303 1.3362-0.55832 1.3667-0.61164 0.7431-1.3007-2.0537-1.2814-4.5349-1.4944-6.4934-2.8578-2.47-1.7561-3.9606-1.7674-4.9812-0.0377-0.598 1.0136-0.9697 1.2567-1.8379 1.2018-1.3986-0.0497-2.7078 0.40336-4.0259 0.72541-0.6842 0.14972-1.0423 0.47163-1.0423 0.93696 0 1.2789 1.3089 2.363 3.9813 3.2975 8.4897 4.2837 18.76 6.8128 26.153 8.0796 0.83387 0.14164 2.0268 0.12085 2.6508-0.0462 0.6241-0.16704 1.1784-0.30371 1.2319-0.30371zm-28.92-2.61c0.3423-0.55373-0.7102-1.1642-1.6041-0.93051-0.8456 0.22114-1.0377 0.55665-0.5804 1.0139 0.369 0.36899 1.9421 0.30893 2.1845-0.0834zm230.06-5.22c1.2633-1.3571 2.7207-3.2393 2.1217-4.7128-0.6703-1.6182-1.7853-2.1407-2.6482-1.2409-1.1124 1.1599-1.7446 6.9557-0.7587 6.9557 0.1558 0 0.7341-0.4509 1.2852-1.002zm-173.57-0.1165c0.5201-0.57473 0.6208-1.1344 0.452-2.5128-0.2447-1.9978-0.4952-2.4539-0.8458-1.5401-0.1315 0.34255-0.5522 0.62283-0.935 0.62283-0.8055 0-1.8762 1.3626-1.8762 2.3877 0 0.55403-0.2608 0.68851-1.2319 0.63534-1.8932-0.10364-3.086-0.0126-2.8554 0.21798 0.1147 0.11473 1.4612 0.29567 2.9922 0.40208s2.8586 0.26839 2.9502 0.35996c0.3179 0.31798 0.6844 0.16244 1.3499-0.57296zm-129.15-1.46c-0.29929-0.34931-0.65004-0.93363-0.77942-1.2985-0.3245-0.91501-1.3962-0.84227-1.3962 0.0948 0 0.41696 0.21909 0.7581 0.48684 0.7581 0.26777 0 0.81742 0.55435 1.2214 1.2319 0.59279 0.99412 0.76131 1.0984 0.87306 0.54036 0.0762-0.38034-0.10642-0.97735-0.40573-1.3267zm-9.219 1.2196c0.88949-0.34133 0.76346-1.6652-0.15852-1.6652-0.55594 0-0.7581 0.2527-0.7581 0.94762 0 1.0318 0.0321 1.057 0.91662 0.71754zm80.578-10.75c0-0.2029-0.3637-1.1176-0.8083-2.0327-1.2532-2.5795-3.8015-3.7289-4.7829-2.1574-0.7956 1.274 0.496 3.1416 2.9379 4.2482 0.8723 0.39529 2.6533 0.35637 2.6533-0.058zm52.688-2.853c0.2596-0.31272 0.7949-0.56857 1.1897-0.56857 0.4438 0 0.9535-0.49422 1.3351-1.2945 0.4892-1.0259 1.1496-1.5296 3.1832-2.4278 3.1718-1.401 3.7082-2.1957 2.4199-3.5852-0.5085-0.54838-1.5226-1.1093-2.2536-1.2464-1.7662-0.33133-3.0755 0.54767-4.03 2.7055-0.884 1.9985-1.5896 2.439-3.4953 2.1821-1.6257-0.21906-3.6156 0.44983-3.5085 1.1793 0.091 0.61758 1.1912 1.7288 1.7123 1.7288 0.2185 0 0.6768 0.42642 1.0183 0.94761 0.6994 1.0675 1.7248 1.2275 2.4289 0.37906zm181.93-14.189c0.5973-1.1161 0.4834-1.6402-0.6135-2.8232l-1.0058-1.0848-0.6915 0.89912c-0.9364 1.2177-0.8848 1.6524 0.3302 2.779 1.2467 1.156 1.471 1.182 1.9806 0.22978zm-328.91-16.89c-0.13098-1.5525-1.6931-1.6781-0.58008-2.9393 0.55923-0.61795 0.57225-0.7644 0.0948-1.0664-0.99886-0.63181-1.687-0.38012-2.2136 0.8097-0.46322 2.007 0.78604 2.1646 1.8497 3.7348 0 0.80256 0.67468 0.37449 0.84926-0.53884zm21.988-10.002c-0.78179-0.96797-1.6042-2.0902-1.8276-2.4938-0.60644-1.0959-1.2382-1.1388-1.7044-0.11587-0.35497 0.77907-0.24168 1.17 0.77607 2.678 1.3146 1.9478 2.4755 2.9131 3.5035 2.9131 1.4631-0.5833-0.20789-2.306-0.74768-2.9814zm0.9839-7.4175c2.9015-1.3288 7.2806-3.8161 7.8342-6.5829-0.13483-0.53723-3.018-3.0686-3.4211-3.6347-0.94675-1.3296-0.93801-1.4237 0.39399-4.2429 0.79225-2.9088 9.7132-2.9456 6.6113-4.8424-1.7984-1.0624-2.5771-2.1009-3.2116-4.2832-0.32315-1.1116-1.0978-2.6023-1.7214-3.3126-0.62365-0.71029-1.3181-1.8198-1.5432-2.4655-0.67167-1.9268-1.8513-1.3329-1.8513 0.93196 0 0.62178-0.35312 1.0895-1.1232 1.4877-1.4991 1.9942-4.5312 5.471-4.5 7.6171 0.0622 3.1008-2.4225 4.5348-2.9054 1.6768-0.14089-0.83391-0.4304-1.5162-0.64336-1.5162-0.36746 0-0.33614 0.40158 0.31954 4.0979 0.16444 0.92699 0.46817 3.5163 1.5688 4.2111 0.81958 0.51737 1.7203-0.85 1.8257-0.57536 0.48951 4.3408-2.1125 10.626-0.0935 10.577 0.64521 1.5442 0.97533 1.6592 2.4605 0.85666zm247.35-12.504c2.6371-0.25361 3.3729-1.6444 1.4563-2.7527-0.5734-0.33153-1.3836-1.1191-1.8005-1.7502-1.209-1.83-1.7962-2.0266-3.6098-1.2087l-1.5902 0.71708-2.1381-1.1186c-4.564-2.3878-10.504-9.8084-12.699-15.865-1.0791-2.9774-1.513-3.472-4.4116-5.0296-3.7061-1.9915-4.8079-1.0588-4.2454 3.594 0.3012 2.4914 0.6978 3.5687 2.7173 7.3808 3.8693 6.7482 13.018 14.002 19.352 15.604 2.3642 0.90117 4.7343 0.64682 6.9691 0.42923zm-2.6764-9.6957c1.0582-0.92915 1.6326-1.1376 3.1403-1.1396 1.1251-0.002 2.2262-0.26039 2.8213-0.66333 2.5729-1.7418 5.3226-4.5574 6.6238-6.7824 0.789-1.349 1.7181-2.6556 2.0647-2.9037 0.842-0.60239 2.0785-2.5357 1.6218-2.5357-0.199 0-0.5538-0.42144-0.7885-0.93655-0.4044-0.88754-0.3472-0.95798 1.0931-1.3458 2.0215-0.54434 2.5206-1.6139 1.8356-3.9337-0.5683-1.9248-2.0069-3.2291-3.8886-3.5256-0.6546-0.10317-1.6527-0.42679-2.2181-0.71915-1.7444-0.90208-2.4393-0.6818-3.1061 0.98463-0.6711 1.6773-1.1833 1.8289-3.0007 0.88839-1.0969-0.5677-2.5402-0.8142-8.9008-1.5202-2.4151-0.26806-3.3153 0.3463-3.6813 2.5124-0.1827 1.0816 0 1.9999 0.7266 3.736 1.2848 3.0525 1.0809 3.4805-1.6582 3.4805-1.773 0-2.3783-0.17501-3.2761-0.94717-1.1922-1.0252-2.3886-1.215-3.1104-0.49322-0.7588 0.75882-0.5307 2.8077 0.442 3.9699 0.4932 0.5893 1.3323 1.9342 1.8647 2.9886 1.6133 3.1956 7.9444 10.023 9.2942 10.023 0.4431 0 1.3884-0.51172 2.1007-1.1372zm-228.22-3.03c0.5736-0.91844 1.1563-0.95371 2.3911-0.14468 1.3046 0.85482 2.0693 0.156 2.0701-1.8917 0.0007-2.1526 1.0529-4.0872 2.4632-4.529 0.6254-0.19598 1.4064-0.58992 1.7356-0.87544 1.2208-1.059 2.0164-0.60606 3.685 2.0981 1.741 2.8214 2.2719 3.2245 3.5851 2.7223 2.0297-0.77625 2.7401-2.5634 2.2368-5.627-0.3354-2.0417 0.084-3.5722 1.2206-4.4506 0.2696-0.20848 0.6947-0.76283 0.9445-1.2319 0.2499-0.46907 0.6046-0.85286 0.7883-0.85286 1.4178 0.87606 2.4266 2.0778 3.8702 2.805 0.7741-4.0805-2.464-7.8043-1.5684-11.295 0.2764-1.0634 0.541-2.5846 0.588-3.3804 0.093-1.5699 0.4278-2.179 0.8449-1.5365 0.4601 0.70854 1.8909 1.284 2.5569 1.0284 0.5452-0.20921 0.6064-0.59775 0.4046-2.568 0.539-6.0378 1.7799-13.902-0.8417-17.405-2.9854-3.9715-4.4323-4.5399-5.1138-2.009-0.3009 1.1174-0.2882 2.3368 0.047 4.5802 0.2517 1.6816 0.4329 3.9539 0.4027 5.0496-0.039 1.4315 0.153 2.285 0.6832 3.0324 0.9076 1.2793 1.2969 3.125 0.817 3.8731-0.3035 0.47303-0.5009 0.42482-1.2879-0.31457-1.8307-5.0405-7.2479-3.8918-11.239-5.835-0.0008-0.54689-0.8198-0.27627-2.0864 0.68978-1.2741 0.97178-1.8151 2.2669-2.026 4.85-0.054 0.66266-0.116 0.66877-0.9878 0.0976-0.5115-0.33516-1.3644-0.57342-1.8952-0.52949-0.9001 0.0745-0.9693 0.22143-1.026 2.1767-0.98182 6.435 0.64246 10.469 2.0942 16.063 0.3117 1.2185 1.0136 2.8908 1.5599 3.7163 1.0831 1.6367 1.0168 2.7134-0.2076 3.3687-0.4028 0.21558-0.7324 0.24278-0.7324 0.0604 0-0.18235-0.4195-0.52267-0.9322-0.75628-1.1085-0.50506-2.2709-2.6507-3.044-5.6185-0.51521-2.0724-1.8447-3.9848-2.0778-5.9884-0.2258-2.1022-0.9957-2.7251-1.3587-1.0993-0.5836 2.6141-0.5945 2.6272-1.2123 1.4481-0.54203-1.0345-0.59483-1.0528-1.0895-0.37628-0.62325 0.85233-0.68258 3.3442-0.10533 4.4228 0.74472 1.3915 3.3359 10.762 3.363 12.162 0.01 0.36687-0.3282 0.95915-0.7451 1.3162-0.8382 0.71771-0.9628 1.6643-0.3657 2.7798 0.5015 0.93719 0.9948 0.92946 1.5908-0.025zm-5.8104-2.5081c-0.5663-0.68236-1.4794-0.67454-1.4794 0.0127 0 0.61029 0.71305 0.95387 1.4311 0.68958 0.36752-0.13528 0.37912-0.3037 0.0484-0.70225zm154.84-6.5524c0.9275-0.96803 1.1979-1.0592 2.248-0.7581 0.6565 0.18828 1.4811 0.34234 1.8324 0.34234 0.8581 0 1.8301-1.021 1.8301-1.9223 0-0.86535-1.5775-1.0018-3.292-0.28477-0.5869 0.24544-1.8051 0.48806-2.7071 0.53915-2.417 0.13693-2.719 0.34193-2.719 1.8456 0 1.1462 0.1259 1.3386 0.8767 1.3386 0.4821 0 1.3511-0.49519 1.9309-1.1004zm-20.244-2.1215c0-0.31587-0.3369-0.56857-0.7581-0.56857-0.8389 0-1.027 0.58639-0.2842 0.88611 0.8248 0.33283 1.0423 0.26655 1.0423-0.31754zm10.582-0.14222 0.9161-0.25617-0.9161-0.59136c-2.11-1.3619-4.1211-1.078-2.6667 0.37644 0.8384 0.83834 1.1539 0.89408 2.6667 0.47109zm-5.6543-3.0797c-0.7417-0.47927-1.5162-0.47927-1.5162 0 0 0.20847 0.469 0.37643 1.0423 0.37325 0.8123-0.004 0.9169-0.0869 0.4739-0.37325zm126.43-0.86498c0.028-0.0455 0.9432-1.6561 2.0325-3.5792 1.2816-2.2627 2.3361-3.6671 2.9882-3.98 0.6815-0.32695 1.2345-1.0971 1.7078-2.3787 0.9071-2.4558 1.2503-2.7841 2.0618-1.9725 0.4013 0.40127 0.8029 1.7673 1.0539 3.5847 0.34 2.4612 0.5194 2.9364 1.1086 2.9364 0.9712 0 2.0392-1.5662 2.4555-3.601 0.1919-0.93814 0.804-2.7897 1.3602-4.1145 0.9984-2.378 1.0058-2.4603 0.5772-6.4438-0.5336-4.9601-0.9345-6.2942-2.4348-8.103-2.1892-2.6393-3.3222-1.4496-3.8177 4.0089-0.2053 2.2617-0.458 3.1614-1.0558 3.7593l-0.786 0.78596-0.7182-0.91641c-0.395-0.50402-1.0968-1.5134-1.5595-2.2431-1.1776-1.857-2.9271-2.0426-3.89-0.41255-0.5431 0.91939-1.0193 1.1966-2.4032 1.3991-0.9492 0.13888-2.21 0.59305-2.8017 1.0093-0.9688 0.68148-1.2235 0.70802-2.5604 0.26681-0.8166-0.26949-1.58-0.39463-1.6965-0.27809-0.6455 0.64544-0.178 3.6769 1.1943 7.7449 1.4157 3.7809 1.0004 8.1633 2.7693 11.797 0.9486 1.7724 1.4775 2.0187 2.9833 1.3895 0.7587-0.31695 1.4027-0.61348 1.4312-0.65894zm-78.271-11.272c0.8256-0.42119 1.5011-0.86571 1.5011-0.98783 0-0.12211-0.4264-0.55745-0.9476-0.96743-0.5459-0.42934-0.9477-1.1355-0.9477-1.6655 0-0.53377-0.2217-0.92011-0.528-0.92011-0.2904 0-0.6262-0.25586-0.7462-0.56858-0.12-0.31271-0.5362-0.56857-0.925-0.56857-0.3887 0-0.8166-0.10978-0.9508-0.24397-0.6889-0.68889-4.8581-2.091-6.5157-2.1912-2.2395-0.13542-4.2451-0.80767-5.3311-1.7869-1.0407-0.9384-2.4714-0.94625-2.3289-0.0128 0.1505 0.98588 2.104 3.2507 3.7919 4.3962 2.7741 1.7789 5.6152 3.0363 8.1987 4.8052 0.8974 0.66345 2.513 1.255 3.9288 1.4385 0.1647 0.0214 0.9749-0.30582 1.8005-0.72699zm-136.24-0.21c0.1225-0.31898 0.2485-1.0949 0.2802-1.7243 1.0398-3.1448 1.2676-6.7182 0.4522-9.9385-0.3296-1.2089-0.5993-2.7928-0.5993-3.5197 0-1.2054 0.1501-1.386 1.7057-2.0528 2.7746-1.8658 0.7009-3.9015 1.7077-6.069 1.2672-2.7055 2.1158-2.4638 2.3439 0.66761 0.072 0.98284 0.2556 1.2319 0.9103 1.2319 1.1596 0 1.5905-0.67074 2.47-3.845 0.4249-1.5336 1.0161-2.9248 1.3137-3.0915 0.2976-0.16672 0.5411-0.5505 0.5411-0.85286 0-0.611 1.1095-0.77088 1.1845-0.17069 0.026 0.20848 0.09 0.54962 0.1422 0.7581 0.052 0.20847 0.1187 0.59226 0.1479 0.85285 0.037 0.32906 0.1629 0.30026 0.4123-0.0942 0.2278-0.36038 0.9532-0.56824 1.9842-0.56857 1.9153-0.00076 2.2294-0.8378 0.6063-1.6158-0.7764-0.37212-0.9727-0.68899-0.8249-1.3318 0.1066-0.46391 0.3092-2.1388 0.4502-3.7219 0.2201-2.4714 0.419-3.0631 1.4066-4.1845 1.3967-1.5859 3.4254-2.5378 4.0588-1.9045 0.319 0.31897 0.2037 0.66826-0.45 1.3642-0.7773 0.82731-0.8489 1.1673-0.6203 2.9426 0.1422 1.104 0.3062 2.561 0.3645 3.2378 0.058 0.67684 0.2089 1.3336 0.3347 1.4594 0.4654 0.46541 1.0373-0.30513 1.0373-1.3976 0-0.61976 0.2404-1.2189 0.5344-1.3317 0.5432-0.20847 1.0299-1.4734 1.2226-3.178 0.1713-1.5147 0.8341-2.4006 2.6063-3.4836 1.1382-0.69563 1.9588-1.6026 2.6065-2.8808l0.9454-1.8655 2.7436-0.23001c3.0607-0.2566 4.1919-0.98324 4.3732-2.8093 0.2251-2.2668 0.9794-3.8973 1.803-3.8973 0.8292 0 1.3032 1.8539 1.454 5.6857 2.9069 10.473 1.7259 4.2215 6.8349 3.5994 3.271 1.0508 4.4765 0.49372 5.3584-2.4758 1.0516-4.4383 4.0344-4.6922 7.5466-6.4154l1.2146 0.75068c0.6681 0.41288 1.4886 0.75068 1.8235 0.75068 0.6286 0 1.7655 1.8041 1.7655 2.8017 0 1.7532 2.4685 0.79176 3.0146-1.1741 0.2197-0.79093 0.918-2.2596 1.5517-3.2637 3.7827-9.1976 4.2082 1.9996 11.812-2.5901 1.3314-0.94799 4.2883-6.8053 4.1811-8.2823-0.038-0.52119 0.014-1.4765 0.1161-2.1229 0.1565-0.99518 0.3436-1.1694 1.2207-1.1371 0.8828 0.0325 1.0534 0.22081 1.1549 1.2748 0.091 0.94799-0.1315 1.4873-0.9544 2.3102l-1.0735 1.0735 1.0822 2.4038c0.7324 1.6267 1.0393 2.854 0.9494 3.7964-0.1191 1.2494-0.064 1.3497 0.5355 0.9753 0.3676-0.22955 0.6684-0.51848 0.6684-0.64207 0-0.12358 0.2711-0.22469 0.6025-0.22469 0.667 0 2.9006 2.064 2.6666 2.4641-0.081 0.13883 0 0.63622 0.1746 1.1053 0.3882 1.0271 1.8445 1.1723 1.9011 0.18953 0.3025-5.2557 1.0283-7.6257 2.6238-8.5682 2.4363-1.4391 3.2276-0.0823 3.5202 6.0356-0.1977 5.6674 2.7973 9.8777 5.1788 14.606 0.02 1.1424 0.8424 2.9942 1.33 2.9942 0.5713 0 0.94-1.1701 0.9554-3.0324 0.014-1.65 0.3017-2.0925 1.5623-2.4006 0.6424-0.15702 1.1456-0.64734 1.4215-1.385 1.4342-3.8354 1.1589-3.5229 2.8942-3.285 0.87 0.11924 1.7368 0.0739 1.9263-0.10076 0.1895-0.17465 0.9658-0.42779 1.725-0.56253 1.2213-0.21674 1.5052-0.10611 2.4638 0.96014 1.8538 2.062 3.32 3.3966 4.3053 3.9188 1.0892 0.57728 1.1051 0.58062 2.7481 0.58124 0.7669 0.00029 1.6477 0.35804 2.3333 0.94762 1.5437 1.3276 1.8513 1.197 1.6204-0.6881-0.4141-3.3812-0.065-3.3885 10.477-0.2185 1.4217 0.42757 2.8129 0.68996 3.0914 0.58309s0.6212-0.71754 0.7617-1.357c0.1417-0.6452 0.4999-1.1628 0.8046-1.1628 0.5598 0 3.6686 1.5704 6.4029 3.2344 1.4838 0.90296 3.406 1.1997 4.1783 0.64506 0.6172-0.44318 1.697-2.2838 1.697-2.8927 0-0.30585-0.5156-0.92322-1.1457-1.3719-1.1578-0.82444-2.6448-3.2633-2.6448-4.3378 0-0.96815 1.4211-0.66785 3.5161 0.74299 1.4634 0.98549 2.3737 1.3267 3.5397 1.3267 0.8633 0 2.1449 0.23988 2.8479 0.53305 0.703 0.29319 2.8986 0.83139 4.8792 1.196 3.0453 0.56063 4.0031 0.59429 6.2069 0.21811 1.4333-0.24465 2.7642-0.5426 2.9576-0.66211 0.5368-0.33176-1.8389-2.4161-2.812-2.4671-0.471-0.0247-0.9843-0.0247-1.1406 0-0.1564 0.0247-0.3037-0.083-0.3275-0.2394-0.2995-1.97-0.2117-2.3898 0.6883-3.2898 1.2319-1.232 1.5417-1.221 4.2602 0.15135 1.7995 0.90837 2.3146 1.3809 2.666 2.4457 0.2396 0.72589 0.7272 1.4124 1.0836 1.5255 0.3564 0.11312 1.8378-0.13459 3.292-0.55046 1.4542-0.41588 2.6954-0.75614 2.7581-0.75614 0.063 0 0.5362-0.4555 1.0522-1.0122 1.0457-1.1284 3.4439-1.6736 7.7985-1.7731 3.0184-0.069 4.1148-0.80465 4.1148-2.7609 0-1.4007 0.8562-2.1625 2.9115-2.5905 1.5119-0.31486 2.4002-1.247 1.6375-1.7183-0.6076-0.37552-6.7883-0.0828-8.7185 0.41291-2.1002 0.53936-3.9865 0.406-6.1129-0.43215-1.0843-0.42739-2.3273-0.75137-2.7621-0.71996-1.4419 0.10415-2.4968-0.44476-2.4893-1.2953 0.01-1.1347 2.1436-4.4096 2.8727-4.4096 0.3322 0 1.0841 0.34178 1.6707 0.75951 0.5866 0.41772 1.4659 0.78497 1.9538 0.81612 1.1589 0.0739 4.0684-0.73179 5.1538-1.4273l0.8553-0.54806-0.7682-1.5058-0.7682-1.5059 1.2396-0.0562c0.6818-0.0309 1.4954-0.0909 1.8081-0.13339 0.3127-0.0426 0.8671-0.10255 1.2319-0.13341 0.8313-0.0703 0.8702-1.3079 0.062-1.9785-0.3947-0.32763-0.531-0.84967-0.397-1.5201 0.2233-1.1163-0.4592-1.9623-1.9494-2.4167-0.9461-0.28847-4.4599-4.3046-5.1285-5.8616-0.2308-0.53752-1.0666-1.6984-1.8574-2.5798-1.6818-1.8743-1.9558-3.5182-0.585-3.5089 1.0584 0.007 1.3622 0.22679 2.6146 1.8894 0.9477 1.2583 4.2539 3.0184 4.7457 2.5265 0.6425-0.64248-0.4281-3.1042-2.0773-4.7765-2.0171-2.0454-3.8616-4.49-3.8616-5.1182 0-0.23276 0.2668-0.80408 0.5929-1.2696s0.4967-1.1495 0.3791-1.52c-0.3238-1.0201-3.4979-3.9493-6.4266-5.9306-3.0075-2.0346-4.3531-2.1755-4.9331-0.51633-0.5068 1.4498 0.4178 4.9847 1.7385 6.6465 0.5875 0.73939 1.0744 1.79 1.0819 2.3346 0.01 0.54465 0.1113 1.9533 0.2305 3.1302 0.2612 2.5781-0.089 3.3937-1.2666 2.9506-0.5567-0.2094-0.978-0.85429-1.2702-1.9439-0.3591-1.3392-2.223-5.419-6.1996-13.571-0.415-0.85065-0.6625-0.93797-2.4193-0.85324-1.8635 0.0899-1.9871 0.0355-2.5876-1.1371-0.77-1.5037-3.1929-4.0736-3.8412-4.0741-0.8775-0.00075-3.4527 2.6789-3.7128 3.8633-0.1412 0.64246-0.6627 2.0402-1.159 3.1061s-0.904 2.3117-0.9061 2.7685c0 0.45677-0.1817 0.94052-0.3993 1.075-0.7172 0.44325-1.4514-0.60572-1.8847-2.6925-0.6159-2.967-1.6683-3.8239-3.2382-2.6365-1.2222 0.92447-1.9044 0.67583-2.6437-0.96371-0.4802-1.0649-1.1543-1.778-2.1714-2.2968-2.1691-1.1066-2.9205-0.83593-4.2479 1.5298-1.9486 3.4728-2.9311 3.468-4.4322-0.0215-0.4346-1.0102-1.0337-1.8367-1.3314-1.8367-0.2976 0-0.8046 0.63964-1.1266 1.4214-1.8348 8.4068-13.814 1.7458-12.479 9.6587 0.7 3.4476 0.6978 3.4693-0.4596 4.5744-0.9823 0.93792-1.0808 1.229-0.8475 2.5047 0.1879 1.0271 0.7321 1.869 1.8869 2.9188 2.1396 1.945 2.5492 2.1555 3.7443 1.9239 0.6274-0.12162 1.2643 0.0341 1.6853 0.41218 0.6243 0.56057 0.7374 0.54697 1.46-0.17557 0.4307-0.43079 0.8998-1.3582 1.0424-2.0609 0.2304-1.1354 0.4112-1.2904 1.6251-1.3928 1.2467-0.10509 1.435-0.28125 2.1566-2.0176 1.0127-2.4369 2.0189-2.4302 3.4505 0.0229 0.6467 1.1082 1.5582 1.986 2.6761 2.5773l1.6955 0.89673 0.6633-0.81884c0.3648-0.45037 0.6633-1.1202 0.6633-1.4885 0-0.95128 0.7835-1.48 2.1361-1.4415 0.6414 0.0183 1.347-0.0786 1.568-0.21521 0.6881-0.42527 2.4817 0.49226 4.1536 2.1248 2.5818 2.5211 3.2793 2.1347 3.1211-1.7292-0.1248-3.0498-0.029-3.6709 0.5629-3.6709 1.0046 0 2.3909 2.4263 3.1712 5.55 0.424 1.6974 1.1249 3.7801 1.5576 4.6282 0.4327 0.84814 0.7867 1.9129 0.7867 2.3661 0 1.1558-0.8167 3.7548-1.1799 3.7548-1.2839 0-0.075 6.6166 2.1123 11.563 0.773 1.7479 0.8363 2.1553 0.4023 2.5893-0.4238 0.42384-0.9109 0.4334-2.7518 0.0541-2.2917-0.47226-5.5014-0.2373-6.192 0.45327-0.454 0.45398-0.7804 2.7359-0.5146 3.598 0.2804 0.90974 1.9832 1.3855 4.1972 1.1728 2.026-0.19468 3.5475 0.32179 3.5475 1.2042 0 0.81059-2.0018 1.338-3.5658 0.93938-0.749-0.19089-1.9162-0.49058-2.5938-0.66598-2.0194-0.52279-7.072-3.4512-7.423-4.3024-0.2288-0.55473-1.5982-0.31922-1.8423 0.31685-0.1315 0.34276 0.038 1.3699 0.3759 2.2826 0.3382 0.91266 0.5207 1.905 0.4055 2.2052-0.2528 0.65893-1.4871 1.1026-2.0682 0.74349-0.2307-0.14256-1.4613-0.30514-2.7348-0.36128-1.9704-0.0869-2.4448-0.25266-3.1849-1.1131-0.4783-0.55603-0.8696-1.2364-0.8696-1.512 0-0.27557-0.2505-0.70891-0.5566-0.96298-0.4559-0.37837-0.7571-0.24251-1.6644 0.75089-0.9499 1.04-1.2764 1.1758-2.2907 0.95301-0.7364-0.16175-1.5739-0.78456-2.2188-1.6502-1.3066-1.7538-6.312-6.6738-8.0105-7.874-1.6863-1.1914-2.327-1.1456-3.6667 0.26197-1.5988 1.6799-1.995 1.8084-4.5045 1.4614-1.8204-0.25175-2.4585-0.19096-3.3167 0.31599-0.5844 0.34524-1.0626 0.76151-1.0626 0.92504 0 0.79518-1.4809 0.19573-1.8406-0.74506-0.7438-1.9453-1.3258-2.3633-3.1782-2.2827-2.0058 0.0873-2.7905-0.43266-3.1546-2.0901-0.4337-1.9747-0.9746-2.5071-2.8088-2.7649-1.7103-0.24036-3.4551-1.0613-3.3744-1.5876 0.023-0.15242 0.022-0.6609 0-1.13-0.063-1.192-0.7411-1.066-1.0205 0.18952-0.4412 1.9826-0.5751 2.3107-1.3393 3.2822-0.7161 0.9104-0.8364 0.94001-1.7982 0.44264-1.4941-0.7726-1.8347-1.783-2.2802-6.7645-0.3766-4.2111-0.4679-4.5432-1.6292-5.9264-1.0473-1.2474-1.3509-1.4103-2.0421-1.0954-1.0027 0.45686-2.3355 4.059-2.8524 7.7092-0.2028 1.432-0.5777 2.7347-0.833 2.8948-0.7907 0.49591-1.1452-0.99114-0.7638-3.2046 0.4525-2.6267 0.1012-3.5694-1.483-3.9793-0.8902-0.23029-1.4935-0.75285-2.0965-1.816-0.4656-0.82094-0.8551-1.322-0.8654-1.1136-0.01 0.20848-0.3324 0.003-0.7155-0.45547l-0.6967-0.83453-0.7316 0.83453c-2.0607 2.2862-2.3678 7.5382-5.0957 8.5635-2.7052 0.43958-2.1678-3.2832-2.0638-4.5062 0.2519-2.8882 0.2223-3.0579-0.6926-3.9728-1.2176-1.2176-1.9769-1.2072-3.0089 0.0414-0.4533 0.54844-1.541 1.7534-2.4173 2.6776-0.8762 0.92426-1.6979 2.0107-1.826 2.4143-0.1281 0.40359-0.4859 0.73381-0.7952 0.73381-0.8953 0-1.7389-2.5358-1.5976-4.8017 0.1229-1.9694 0.1-2.0222-0.8839-2.0217-1.3186 0.00076-3.7943 3.0507-4.8823 6.0147-1.1739 2.6566-2.5529 3.497-5.0973 4.5992-0.9079 0-1.5096-1.3329-2.2669-5.0224-0.1606-0.78202-0.4373-1.0424-1.108-1.0424-1.015 0-1.5351 0.52533-1.8766 1.8952-0.346 1.3884-3.1045 4.213-3.839 3.9311-0.3289-0.12621-1.0189-0.94767-1.5333-1.8255-0.8253-1.4082-1.0682-1.5765-2.0654-1.4301-1.2355 0.18134-1.3075 0.38592-1.6732 4.7553-0.4061 4.852-2.7285 5.4216-5.2895 1.2973-0.7713-1.242-1.8906-1.3457-2.6605-0.24648-0.589 0.84082-0.5092 4.0644 0.1301 5.2589 0.3961 0.7401-0.764 3.5782-1.5925 3.8961-0.3021 0.11593-1.8535-0.13229-3.4476-0.5516l-2.8982-0.76237-1.1745 0.9882c-0.6459 0.54351-1.3745 1.0076-1.6191 1.0314s-0.9133 0.0988-1.486 0.16673c-1.3281 0.15754-2.0032-0.8906-1.2584-1.9539 0.279-0.39823 0.6791-1.3468 0.8893-2.1079 0.6694-2.4245-0.9313-2.9725-3.2732-1.1207-0.7596 0.60071-1.7223 1.1622-2.1393 1.2477-0.6636 0.13616-0.5337 0.38568 1.0424 2.0026 0.9903 1.0159 1.8005 1.8984 1.8005 1.961 0 0.0627-0.4977 0.68072-1.106 1.3735-0.6718 0.76513-1.3231 2.1468-1.659 3.5194-0.6269 2.5618-1.7026 7.5651-1.8712 8.7036-0.062 0.41695-0.3642 0.7581-0.6721 0.7581-0.6568 0-1.9195-2.3957-1.6982-3.2219 0.084-0.31272 0.256-1.8479 0.3828-3.4114 0.1267-1.5636 0.3758-3.2693 0.5534-3.7905 0.6975-2.0468 0.755-3.0774 0.2401-4.3096-0.6292-1.5061-1.3337-2.051-1.7598-1.3615-0.1668 0.26992-0.8301 0.49078-1.4738 0.49078-1.1326 0-1.1705 0.0546-1.1705 1.6864 0 0.92754 0.2447 2.4769 0.5439 3.443 0.698 2.2545 1.6031 7.2694 1.4477 8.0217-0.202 0.97844-1.4685 1.5414-2.5459 1.1317-1.0131-0.38516-3.7796-4.3032-3.7954-5.3753-0.016-1.0641-0.4914-1.1859-0.9903-0.25358-0.2606 0.48693-0.4487 0.97061-0.418 1.0748 0.031 0.10423-0.2981 1.1277-0.7306 2.2743-0.7617 2.019-0.7724 2.3345-0.3382 9.9986 0.3897 6.8795 0.3753 7.9868-0.1107 8.4728-1.2457 1.2458-2.7058-0.25348-2.8704-2.9476-0.077-1.2661-1.7371-2.6361-3.1934-2.6361-0.7519 0-1.5391-0.28059-1.8971-0.67621-0.9428-1.0417-2.538-4.9007-2.538-6.1396 0-1.2023-0.6989-3.061-1.3189-3.5074-1.901-1.3688-3.6468 4.0856-2.6803 8.374 0.1578 0.69994 0.7109 1.8939 1.229 2.6533 1.0871 1.5931 1.053 2.501-0.2547 6.7821-0.6533 2.139-0.9973 2.7481-1.5518 2.7481-0.861 0-1.9841 1.5936-1.79 2.5399 0.1034 0.50395 1.5817 1.4813 2.4934 1.4387 1.662-0.0776 1.3265 0.32571 1.3044 2.9496-0.025 2.9241 2.6282 9.5651 4.1316 10.343 0.5999 0.3102 1.0907 0.7297 1.0907 0.93222s0.5898 1.0211 1.3108 1.8191c0.7209 0.79801 1.4778 1.89 1.6818 2.4267 0.3219 0.8467 0.5725 0.96546 1.8948 0.89795 0.8381-0.0428 1.8587-0.38088 2.268-0.75131 0.7173-0.64912 0.762-0.64148 1.2344 0.21081 0.6044 1.5308 0.5661 2.9538 0.6669 4.58 0.076 0.53294 1.5797 0.28631 1.803-0.29569zm-4.8915-8.4224c-1.0739-1.1233-1.8319-3.6574-1.4336-4.7928 0.2263-0.64537 0.292-0.62975 0.8341 0.19824 2.7674 4.2276 3.1655 7.2786 0.5995 4.5945zm-2.1425-6.6625c-0.6299-1.1769-0.7569-2.2198-0.3631-2.9818 0.1824-0.35306 0.3583-1.3197 0.3907-2.1481 0.096-2.4494 2.5906-3.2696 2.5906-0.85175 0 0.57839-0.1187 1.1703-0.2637 1.3153-0.2918 0.29185-0.4248 0.95743-0.5594 2.8003-0.05 0.67755-0.2257 1.2319-0.3915 1.2319-0.1659 0-0.3016 0.24579-0.3016 0.5462 0 0.93488-0.6222 0.98456-1.102 0.088zm10.795-21.698c-0.7733-0.77329-0.7549-1.8606 0.055-3.2311 0.7693-1.3023 1.5384-1.3859 2.8995-0.31526 1.2564 0.98824 1.2666 1.9445 0.034 3.1772-1.1032 1.1032-2.1275 1.2298-2.988 0.3692zm5.8181-4.9953c-0.2955-0.57331-0.7081-1.1677-0.917-1.3209-0.2088-0.15316-0.017-0.28109 0.4268-0.28428 0.4436-0.003 1.0188 0.25005 1.2784 0.56277 0.326 0.39282 0.3403 0.56857 0.046 0.56857-0.2341 0-0.4255 0.18064-0.4255 0.40142s0.1686 0.29721 0.3747 0.16984c0.2149-0.1328 0.2784 0.0194 0.149 0.35667-0.295 0.76864-0.3052 0.76366-0.9329-0.45412zm11.289-3.1362c-0.2877-1.1002 0.057-2.0481 0.9454-2.6032 1.0482-0.65458 1.5009 0.0533 0.9835 1.5376-0.5091 1.4603-1.6595 2.0958-1.9289 1.0656zm6.4297-4.7922c-0.139-0.13898-0.2527-0.79284-0.2527-1.453 0-1.4464 1.002-1.6589 1.6029-0.34004 0.6327 1.3886-0.3928 2.7504-1.3502 1.7931zm16.659-4.5448c-0.5538-0.55385-1.1139-1.4332-1.2447-1.9542-0.4527-1.8038 1.9622-2.4642 3.1772-0.86888 0.6898 0.90562 0.6145 3.3212-0.1122 3.6-0.8026 0.30799-0.6853 0.35809-1.8203-0.7769zm125.59 0.0404c-0.4051-0.48805-0.3683-0.69676 0.2171-1.2319 0.6737-0.61597 0.6806-0.61096 0.1569 0.11379-0.5059 0.70008-0.497 0.71828 0.1155 0.23787 0.3649-0.28612 0.6634-0.77608 0.6634-1.0888 0-0.45764 0.1089-0.47822 0.558-0.10548 0.4913 0.40776 0.4913 0.52981 0 1.0211-0.3069 0.30691-0.558 0.80168-0.558 1.0995 0 0.71094-0.5427 0.68924-1.1529-0.0461zm11.482-1.7315c-0.662-0.67892-0.5906-2.2302 0.1398-3.0373 0.5886-0.65042 0.6732-0.64748 2.0841 0.0723 0.9208 0.46977 1.819 0.66282 2.4023 0.51639 0.7727-0.19393 0.9731-0.0694 1.1735 0.72918 0.3212 1.2799-0.044 1.7787-1.276 1.743-0.5596-0.0162-1.6998 0.0812-2.5337 0.21644-1.0201 0.16545-1.6711 0.0869-1.99-0.24002zm-129.58-6.9987c0.1266-0.32976 0.2301-0.87559 0.2301-1.213 0-0.39507 0.1305-0.48289 0.3667-0.24674 0.4383 0.43837 0.083 2.0593-0.4514 2.0593-0.2065 0-0.2719-0.26981-0.1454-0.59958zm20.873-1.3203c-0.3181-0.51479 0.4706-0.7509 1.3821-0.41371 0.8601 0.31817 0.8586 0.32308-0.1635 0.51847-0.5676 0.10849-1.1159 0.0613-1.2186-0.10476zm99.006-4.08c-0.345-0.38125-0.6273-1.1412-0.6273-1.6889 0-0.54764-0.4291-1.628-0.9536-2.4009-1.0243-1.5094-0.9824-2.2498 0.2243-3.9643 0.5169-0.7345 0.7053-1.7862 0.7594-4.2404 0.076-3.4657-0.01-3.6759-2.0201-4.9913-0.705-0.46107-1.0405-1.005-1.0366-1.6805 0.01-1.4598 0.487-1.9896 1.8317-2.0278 0.7473-0.0213 1.1949-0.23007 1.1949-0.55746 0-0.63449-1.6349-3.9116-2.9209-5.8548-0.848-1.2815-0.8881-1.5146-0.4263-2.4827 0.6873-1.441 2.4759-1.6512 3.5976-0.42292 1.2137 1.3292 3.5394 5.9778 3.5457 7.0874 0.01 0.99013 0.3682 1.7841 1.6163 3.5387 0.3709 0.52139 0.7585 1.6053 0.8613 2.4087 0.1029 0.8034 0.3788 1.636 0.6132 1.8503 0.3062 0.27986 0.3379 0.23515 0.1126-0.15883-0.1879-0.32863 0.1363-0.22804 0.8091 0.25102 1.6651 1.1856 8.8695 8.5356 8.8695 9.0486 0 0.65693-0.8686 1.2587-2.2017 1.5254-1.4137 0.28273-3.2279-0.10527-2.9086-0.62202 0.1251-0.20237 0.07-0.36793-0.1233-0.36793-0.1928 0-0.8789-1.1514-1.5246-2.5586-1.1602-2.5283-3.083-5.0224-3.8722-5.0224-0.2237 0-0.3013 0.17057-0.1725 0.37904 0.1289 0.20848 0.086 0.37905-0.096 0.37905-0.1814 0-0.7032 0.34779-1.1595 0.77287-0.9748 0.90816-1.0635 2.3651-0.261 4.2858 0.7692 1.8408 0.7129 3.2285-0.1909 4.711-0.4162 0.68258-0.7567 1.4806-0.7567 1.7734 0 0.66424-1.0289 1.7236-1.674 1.7236-0.2656 0-0.7651-0.31193-1.1101-0.69318zm21.216-1.0189c-1.2891-1.2891-1.0846-3.5946 0.3189-3.5946 0.8055 0 1.69 1.3113 1.8007 2.6696 0.089 1.088-0.03 1.3294-0.6988 1.4251-0.4431 0.0633-1.0824-0.1617-1.4208-0.50009zm41.991 67.151c1.0776-5.9294 0.8677-10.515-0.5685-12.419-0.8965-1.1884-1.3597-0.62439-0.7873 0.95849 0.3271 0.90479 0.3481 1.565 0.073 2.2894-0.6079 1.5988-0.4582 3.2026 0.4495 4.8177l0.8365 1.4884-0.8931 1.635c-0.9085 1.663-0.8288 2.6442 0.1831 2.2559 0.3078-0.11813 0.626-0.57975 0.7071-1.0258zm-71.898-3.3918c1.2181-1.3991 2.6758-2.4374 4.85-3.4544 0.6296-0.29455 1.4663-0.89078 1.8592-1.325 0.3929-0.43416 1.0955-0.78938 1.5613-0.78938s1.2413-0.31938 1.7233-0.70974l0.8765-0.70974-1.2969-1.375c-1.4379-1.5244-2.2864-1.6762-4.1991-0.75097-1.7862 0.86401-2.6168 1.6455-2.6168 2.462 0 0.38181-1.1514 1.8955-2.5586 3.3637s-2.8346 3.1743-3.172 3.7914c-0.3374 0.61707-0.8205 1.3715-1.0737 1.6765-0.2673 0.32207-0.3488 0.90554-0.1946 1.3917 0.2877 0.9062 0.4962 0.73058 4.2414-3.571zm10.844-24.777c2.1481-0.16199 3.0296-0.38227 3.1887-0.79677 0.3582-0.93353-1.0372-1.6661-2.841-1.4914-1.0142 0.0982-1.6097 0.002-1.6077-0.26076 0-0.34451 2.2318-1.1706 5.3515-1.9833 0.3391-0.0883 1.542-0.97044 2.673-1.9602 1.7597-1.5398 2.6009-1.9532 5.8273-2.8636 4.7148-1.3305 7.9515-2.7786 9.227-4.1282 0.5418-0.57331 1.2557-1.0424 1.5865-1.0424 0.7992 0 1.0983-0.33898 0.8562-0.97012-0.3134-0.81651-5.7244-0.27558-10.363 1.0359-2.9188 0.82529-4.4019 1.0626-5.5621 0.88993-1.4893-0.22163-1.6784-0.13906-3.2258 1.4083-1.3205 1.3204-2.1637 1.7845-4.2869 2.3592-3.0748 0.8323-8.96 3.4882-9.4059 4.2447-0.6715 1.1392-1.9739 2.0184-3.4111 2.3026-2.9575 0.58487-2.5791 2.6916 0.4956 2.7592 0.7296 0.016 1.8383 0.27411 2.4638 0.57352 0.7924 0.37934 1.884 0.48417 3.6009 0.3458 1.3551-0.10921 3.7999-0.29931 5.4328-0.42245zm-191.69-10.22c-0.027-0.46789-0.3482-0.92881-0.7128-1.0243-0.8234-0.21558-1.0679 0.14588-0.7977 1.1793 0.2885 1.1032 1.5765 0.97104 1.5105-0.15502zm180.35-1.4991c0.3298-0.12655 0.5996-0.39426 0.5996-0.59493 0-0.52707-1.6169-0.21201-1.8024 0.3512-0.1699 0.51599 0.2641 0.60394 1.2028 0.24373zm-182.3-14.27c0.513-3.3092 2.2121-9.5763 2.6965-9.9459 0.2762-0.21073 0.6871-1.2246 0.9132-2.2531 0.4154-1.8892 2.2213-5.5204 2.7458-5.5211 0.1564-0.00022 0.2843-0.3927 0.2843-0.8722s0.1866-1.0584 0.4146-1.2864c0.228-0.22803 0.352-0.73122 0.2755-1.1182-0.1231-0.62287-0.2447-0.58292-1.0597 0.34825-1.0356 1.1832-2.4684 3.5574-4.1467 6.8711-0.6231 1.2305-1.4685 2.6231-1.8786 3.0948-1.3658 1.5708-1.6028 2.4187-1.5052 5.3852 0.061 1.841-0.094 3.3598-0.4173 4.0901-0.4579 1.0353-0.4367 1.2516 0.1956 1.99 0.9935 1.1604 1.1976 1.0527 1.482-0.78249zm0.575-10.351c0-0.32502 0.1706-0.48552 0.3791-0.35668 0.2085 0.12885 0.379 0.39477 0.379 0.59095 0 0.19617-0.1705 0.35668-0.379 0.35668s-0.3791-0.26593-0.3791-0.59095zm162.16 6.3219c-0.1224-1.056-1.1872-1.4748-2.1544-0.8474-0.4333 0.28104-0.4025 0.49931 0.1797 1.2711 0.93 1.2329 2.1369 0.97392 1.9747-0.42373zm-79.147-33.667c0-0.76226-0.1096-0.91386-0.4294-0.59405-0.2361 0.23615-0.3268 0.6967-0.2014 1.0234 0.347 0.90425 0.6308 0.71107 0.6308-0.42937zm-0.1895-1.6299c-0.1288-0.20847-0.3095-0.37905-0.4014-0.37905-0.092 0-0.1672 0.17058-0.1672 0.37905s0.1807 0.37904 0.4014 0.37904c0.2208 0 0.296-0.17057 0.1672-0.37904zm117.16-8.3966c0.3621-0.58598-0.8969-1.4655-1.6834-1.176-0.8888 0.32716-1.2342 0.97366-0.7012 1.3125 0.6861 0.43618 2.08 0.35643 2.3846-0.13645zm-191.82 481.7c-0.5734-0.41926-0.5682-0.5022 0.066-1.049 0.3787-0.32655 1.3756-0.97037 2.2154-1.4307 1.2435-0.6816 1.7184-0.76416 2.5586-0.44474 1.1913 0.45293 1.3561 1.5242 0.3683 2.3932-0.8775 0.77193-4.3891 1.1301-5.2081 0.53123zm1.5407-12.205c-1.0189-1.0189-0.5984-1.8694 0.9245-1.8694 1.2156 0 1.3215 0.0911 1.3215 1.1371 0 0.87075-0.1888 1.164-0.8056 1.2521-0.4431 0.0632-1.0913-0.17069-1.4404-0.51983zm247.58-412.54c-0.1649-0.63049-0.1156-0.77849 0.1657-0.49721 0.2202 0.22027 0.3259 0.62423 0.2347 0.89769-0.095 0.28389-0.2664 0.11207-0.4004-0.40048zm50.413-98.992c0.1341-0.51255 0.3059-0.68437 0.4006-0.40049 0.091 0.27346-0.014 0.67742-0.2348 0.89768-0.2813 0.28129-0.3306 0.13329-0.1658-0.49719z" fill="#2b1100"/>
  </g>
  <metadata>
    <rdf:RDF>
      <cc:Work>
        <dc:format>image/svg+xml</dc:format>
        <dc:type rdf:resource="http://purl.org/dc/dcmitype/StillImage"/>
        <cc:license rdf:resource="http://creativecommons.org/licenses/publicdomain/"/>
        <dc:publisher>
          <cc:Agent rdf:about="http://openclipart.org/">
            <dc:title>Openclipart</dc:title>
          </cc:Agent>
        </dc:publisher>
        <dc:title>Eva Per&#xC3;&#xB3;n</dc:title>
        <dc:date>2012-09-25T21:27:57</dc:date>
        <dc:description>Argentinian leader, wife of Juan Domingo Per&#xC3;&#xB3;n</dc:description>
        <dc:source>http://openclipart.org/detail/172500/eva-per&#xC3;&#xB3;n-by-seretur28-172500</dc:source>
        <dc:creator>
          <cc:Agent>
            <dc:title>seretur28</dc:title>
          </cc:Agent>
        </dc:creator>
        <dc:subject>
          <rdf:Bag>
            <rdf:li>Argentina</rdf:li>
            <rdf:li>Eva</rdf:li>
            <rdf:li>Evita</rdf:li>
            <rdf:li>Per&#xC3;&#xB3;n</rdf:li>
            <rdf:li>Politics</rdf:li>
            <rdf:li>clip art</rdf:li>
            <rdf:li>clipart</rdf:li>
          </rdf:Bag>
        </dc:subject>
      </cc:Work>
      <cc:License rdf:about="http://creativecommons.org/licenses/publicdomain/">
        <cc:permits rdf:resource="http://creativecommons.org/ns#Reproduction"/>
        <cc:permits rdf:resource="http://creativecommons.org/ns#Distribution"/>
        <cc:permits rdf:resource="http://creativecommons.org/ns#DerivativeWorks"/>
      </cc:License>
    </rdf:RDF>
  </metadata>
</svg>
