<svg id="Vrstva_1" data-name="Vrstva 1" xmlns="http://www.w3.org/2000/svg" viewBox="0 0 112.44 36.85"><defs><style>.cls-1{fill:#009fdf;}</style></defs><title>fim-uhk-abb</title><g id="zavorky_fim_mini"><rect class="cls-1" x="15.2" y="20.64" width="16.61" height="3.44"/><rect class="cls-1" x="15.2" y="12.78" width="16.61" height="3.44"/></g><g id="zavorky_fim_mini-2" data-name="zavorky_fim_mini"><polygon points="5.08 23.51 5.08 31.77 10.17 36.85 16.36 36.85 14.51 31.77 10.17 31.77 10.17 23.51 5.08 18.43 10.17 13.34 10.17 5.08 14.51 5.08 16.36 0 10.17 0 5.08 5.08 5.08 13.34 0 18.43 5.08 23.51"/><polygon points="36.85 31.77 32.5 31.77 30.65 36.85 36.85 36.85 41.93 31.77 41.93 23.51 47.01 18.43 41.93 13.34 41.93 5.08 36.85 0 30.65 0 32.5 5.08 36.85 5.08 36.85 13.34 41.93 18.43 36.85 23.51 36.85 31.77"/></g><g id="text_fim_mini"><path d="M54.87,13.22h6.52l-.46,1.28H56.42v3.35h3.79v1.2H56.42v4H54.87Z"/><path d="M62.93,13.22h1.56v9.86H62.93Z"/><path d="M76.57,23.08l-1-7.25L73,23.08H71.4l-2.61-7.25-1,7.25H66.46l1.4-9.86h1.48l2.9,8.31,3-8.31H76.6L78,23.08Z"/><path d="M83.29,19.19v-6h1.55v6a2.57,2.57,0,1,0,5.13,0v-6h1.54v6a4.11,4.11,0,0,1-8.22,0Z"/><path d="M93.61,13.22h1.55v4.26h5.22V13.22h1.53v9.86h-1.53V18.76H95.16v4.32H93.61Z"/><path d="M104.25,13.22h1.55v9.86h-1.55Zm8.19,9.86h-1.9l-4.29-4.75,4.27-5.11h1.71l-4.29,5Z"/></g></svg>