<?xml version="1.0" encoding="utf-8"?>
<!-- Generator: Adobe Illustrator 23.0.1, SVG Export Plug-In . SVG Version: 6.00 Build 0)  -->
<svg version="1.0" id="Layer_1" xmlns="http://www.w3.org/2000/svg" x="0px" y="0px"
     width="120px" height="40px" viewBox="0 0 120 40" style="enable-background:new 0 0 120 40;" xml:space="preserve">
<style type="text/css">
	.st0{fill:#FFFFFF;}
</style>
<g transform="translate(-1113 -1370.766)">
	<path class="st0" d="M1126.4,1398.8c-1.6,0.8-3.2,1.2-5.1,1.2c-1.4,0.2-2.8-0.6-3.9-1.8c-0.4-0.8-0.6-1.6-0.6-2.4
		c7.1,0.2,12-1.2,12-5.5c0-3-2.4-4.9-5.9-4.9c-5.7,0.2-10.1,4.9-9.9,10.6c-0.4,3.7,2.4,6.9,6.1,7.3c0.4,0,0.8,0,1.4,0
		c2.2,0,4.5-0.4,6.5-1.4L1126.4,1398.8z M1125,1390.3c0,2-2.8,2.4-7.5,2.4c0.6-2.4,2.6-4.1,5.1-4.3
		C1124,1388.6,1125,1389.2,1125,1390.3L1125,1390.3z"/>
	<path class="st0" d="M1144.3,1377.9l-1.4,8.1c-1-0.4-1.8-0.4-2.8-0.4c-6.1,0-11.2,4.9-11.2,11v0.2c0,4.1,2.4,6.7,5.7,6.7
		c2.6,0,4.9-1.4,6.3-3.7l0,0l-0.4,3.2h3.9c0.2-2,0.4-4.1,0.8-6.1l3.5-18.9L1144.3,1377.9z M1141.3,1393.9c-0.6,3.9-3.2,6.1-5.3,6.1
		s-3-1.8-3-3.9c-0.2-3.7,2.6-6.9,6.3-7.3c0,0,0,0,0.2,0c1,0,1.8,0.2,2.6,0.6L1141.3,1393.9z"/>
	<path class="st0" d="M1160.1,1398.8c-1.6,0.8-3.2,1.2-5.1,1.2c-1.4,0.2-2.8-0.6-3.9-1.8c-0.4-0.8-0.6-1.6-0.6-2.4
		c7.1,0.2,12-1.2,12-5.5c0-3-2.4-4.9-5.9-4.9c-5.7,0.2-10.1,4.9-9.9,10.6c-0.4,3.7,2.4,6.9,6.1,7.3c0.4,0,0.8,0,1.4,0
		c2.2,0,4.5-0.4,6.5-1.4L1160.1,1398.8z M1158.7,1390.3c0,2-2.8,2.4-7.5,2.4c0.6-2.4,2.6-4.1,5.1-4.3
		C1157.7,1388.6,1158.7,1389.2,1158.7,1390.3L1158.7,1390.3z"/>
	<path class="st0" d="M1175.8,1398.8c-1.6,0.8-3.2,1.2-5.1,1.2c-1.4,0.2-2.8-0.6-3.9-1.8c-0.4-0.8-0.6-1.6-0.6-2.4
		c7.1,0.2,12-1.2,12-5.5c0-3-2.4-4.9-5.9-4.9c-5.7,0.2-10.1,4.9-9.9,10.6c-0.4,3.7,2.4,6.9,6.1,7.3c0.4,0,0.8,0,1.4,0
		c2.2,0,4.5-0.4,6.5-1.4L1175.8,1398.8z M1174.3,1390.3c0,2-2.8,2.4-7.5,2.4c0.6-2.4,2.6-4.1,5.1-4.3
		C1173.3,1388.6,1174.3,1389.2,1174.3,1390.3L1174.3,1390.3z"/>
	<path class="st0" d="M1179.8,1403.2c1.2,0,2.2-1,2.2-2.2c0,0,0,0,0-0.2c0-1-0.8-2-1.8-2.2c0,0,0,0-0.2,0c-1.2,0-2.2,1-2.2,2.2
		c0,0,0,0,0,0.2C1177.8,1402.2,1178.6,1403.2,1179.8,1403.2L1179.8,1403.2L1179.8,1403.2z"/>
	<path class="st0" d="M1190.6,1403.2c5.5,0,9.9-4.5,9.9-9.9v-0.2c0.2-3.9-2.6-7.3-6.7-7.5c-0.2,0-0.4,0-0.8,0
		c-5.5,0-9.9,4.5-9.9,9.9c0,0.2,0,0.2,0,0.4c-0.2,3.9,2.8,7.1,6.7,7.3C1190.2,1403.2,1190.4,1403.2,1190.6,1403.2L1190.6,1403.2z
		 M1190.8,1401c-2.6,0-4.7-2-4.7-4.7c0-0.2,0-0.2,0-0.4c0-4.1,2.6-7.9,6.5-7.9c2.6,0,4.7,2.2,4.7,4.9v0.2
		C1197.3,1397.4,1194.4,1401,1190.8,1401L1190.8,1401z"/>
	<path class="st0" d="M1203.4,1402.8l1.4-7.7c0.8-4.5,4.1-7.1,6.3-7.1c2.2,0,3,1.4,3,3.2c0,0.8,0,1.4-0.2,2l-1.8,9.3h3l1.8-9.5
		c0.2-0.8,0.2-1.8,0.4-2.6c0.4-2.4-1.4-4.7-3.9-5.1c-0.2,0-0.6,0-0.8,0c-2.8,0-5.3,1.6-6.7,3.9l0,0l0.4-3.5h-2.6
		c-0.2,1.4-0.4,2.8-0.8,4.7l-2.2,12.2h2.6V1402.8z"/>
	<path class="st0" d="M1230.6,1399.6c-1.6,0.8-3.2,1.2-5.1,1.2c-1.6,0.2-3.2-0.8-4.1-2.2c-0.4-1-0.6-2-0.4-3c6.7,0.2,12-0.8,12-5.3
		c0-2.6-2-4.5-5.3-4.5c-5.5,0-9.7,5.5-9.7,10.8c-0.4,3.5,2.2,6.7,5.9,7.1c0.4,0,0.6,0,1,0c2,0,4.1-0.4,6.1-1.4L1230.6,1399.6z
		 M1230.2,1390.1c0,2.6-3.7,3-8.9,3c0.6-2.8,3-4.9,5.9-5.3C1228.9,1387.8,1230.2,1388.6,1230.2,1390.1L1230.2,1390.1z"/>
</g>
</svg>
